Moderustic-ExtraBold.ufo
<glyph name="exclam" format="2">
  <advance width="255"/>
  <unicode hex="0021"/>
  <outline>
    <contour>
      <point x="48" y="249" type="line"/>
      <point x="207" y="249" type="line"/>
      <point x="227" y="750" type="line"/>
      <point x="27" y="750" type="line"/>
    </contour>
    <contour>
      <point x="127" y="-20" type="curve" smooth="yes"/>
      <point x="180.461" y="-20"/>
      <point x="221.017" y="22.4"/>
      <point x="221.017" y="74.9391" type="curve" smooth="yes"/>
      <point x="221.017" y="127.478"/>
      <point x="180.461" y="168.035"/>
      <point x="127" y="168.035" type="curve" smooth="yes"/>
      <point x="72.6174" y="168.035"/>
      <point x="32.9826" y="127.478"/>
      <point x="32.9826" y="74.9391" type="curve" smooth="yes"/>
      <point x="32.9826" y="22.4"/>
      <point x="72.6174" y="-20"/>
    </contour>
  </outline>
</glyph>
<glyph name="ampersand" format="2">
  <advance width="664"/>
  <unicode hex="0026"/>
  <outline>
    <contour>
      <point x="310" y="419" type="line"/>
      <point x="286" y="448.181"/>
      <point x="261" y="483.4"/>
      <point x="261" y="527.249" type="curve" smooth="yes"/>
      <point x="261" y="558.869"/>
      <point x="274" y="580"/>
      <point x="301.166" y="580" type="curve" smooth="yes"/>
      <point x="327" y="580"/>
      <point x="338" y="560.89"/>
      <point x="338" y="532.034" type="curve" smooth="yes"/>
      <point x="338" y="466.347"/>
      <point x="281" y="441.202"/>
      <point x="221" y="406" type="curve"/>
    </contour>
    <contour>
      <point x="476" y="0" type="line"/>
      <point x="657" y="0" type="line"/>
      <point x="362" y="352" type="line"/>
      <point x="474" y="410"/>
      <point x="512" y="462"/>
      <point x="512" y="538" type="curve" smooth="yes"/>
      <point x="512" y="653"/>
      <point x="426" y="720"/>
      <point x="298" y="720" type="curve" smooth="yes"/>
      <point x="174" y="720"/>
      <point x="87" y="657"/>
      <point x="87" y="556" type="curve" smooth="yes"/>
      <point x="87" y="493"/>
      <point x="121" y="424"/>
      <point x="175" y="377" type="curve"/>
      <point x="92" y="346"/>
      <point x="27" y="282"/>
      <point x="27" y="182" type="curve" smooth="yes"/>
      <point x="27" y="55"/>
      <point x="130" y="-20"/>
      <point x="275" y="-20" type="curve" smooth="yes"/>
      <point x="468" y="-20"/>
      <point x="579" y="114"/>
      <point x="642" y="206" type="curve"/>
      <point x="536" y="312" type="line"/>
      <point x="456" y="188.356"/>
      <point x="386" y="120"/>
      <point x="299" y="120" type="curve" smooth="yes"/>
      <point x="250" y="120"/>
      <point x="217" y="141.142"/>
      <point x="217" y="192.486" type="curve" smooth="yes"/>
      <point x="217" y="224.703"/>
      <point x="230" y="255.912"/>
      <point x="250" y="269" type="curve"/>
    </contour>
  </outline>
</glyph>
<glyph name="C" format="2">
  <advance width="694"/>
  <unicode hex="0043"/>
  <anchor x="416" y="-20" name="bottom"/>
  <anchor x="386" y="719" name="top"/>
  <outline>
    <contour>
      <point x="561" y="208" type="line"/>
      <point x="505.332" y="147.864"/>
      <point x="456.623" y="124"/>
      <point x="397.973" y="124" type="curve" smooth="yes"/>
      <point x="289.62" y="124"/>
      <point x="226" y="206.719"/>
      <point x="226" y="357.386" type="curve" smooth="yes"/>
      <point x="226" y="499.19"/>
      <point x="282.662" y="576"/>
      <point x="393.003" y="576" type="curve" smooth="yes"/>
      <point x="456.623" y="576"/>
      <point x="507.32" y="550.907"/>
      <point x="561" y="493" type="curve"/>
      <point x="667" y="599" type="line"/>
      <point x="613" y="665"/>
      <point x="517" y="720"/>
      <point x="386" y="720" type="curve" smooth="yes"/>
      <point x="171" y="720"/>
      <point x="33" y="572"/>
      <point x="33" y="361" type="curve" smooth="yes"/>
      <point x="33" y="140"/>
      <point x="183" y="-20"/>
      <point x="399" y="-20" type="curve" smooth="yes"/>
      <point x="514" y="-20"/>
      <point x="598" y="25"/>
      <point x="667" y="102" type="curve"/>
    </contour>
  </outline>
</glyph>
<glyph name="H" format="2">
  <advance width="736"/>
  <unicode hex="0048"/>
  <anchor x="368" y="-20" name="bottom"/>
  <anchor x="368" y="719" name="top"/>
  <anchor x="-50" y="500" name="topgr"/>
  <outline>
    <contour>
      <point x="68" y="0" type="line"/>
      <point x="258" y="0" type="line"/>
      <point x="258" y="300" type="line"/>
      <point x="478" y="300" type="line"/>
      <point x="478" y="0" type="line"/>
      <point x="668" y="0" type="line"/>
      <point x="668" y="700" type="line"/>
      <point x="478" y="700" type="line"/>
      <point x="478" y="440" type="line"/>
      <point x="258" y="440" type="line"/>
      <point x="258" y="700" type="line"/>
      <point x="68" y="700" type="line"/>
    </contour>
  </outline>
</glyph>
<glyph name="I" format="2">
  <advance width="326"/>
  <unicode hex="0049"/>
  <anchor x="163" y="719" name="top"/>
  <anchor x="163" y="-20" name="bottom"/>
  <anchor x="251" y="-3" name="ogonek"/>
  <anchor x="-50" y="500" name="topgr"/>
  <outline>
    <contour>
      <point x="68" y="0" type="line"/>
      <point x="258" y="0" type="line"/>
      <point x="258" y="700" type="line"/>
      <point x="68" y="700" type="line"/>
    </contour>
  </outline>
</glyph>
<glyph name="U" format="2">
  <advance width="675"/>
  <unicode hex="0055"/>
  <anchor x="338" y="719" name="top"/>
  <anchor x="338" y="-20" name="bottom"/>
  <anchor x="450" y="-1" name="ogonek"/>
  <outline>
    <contour>
      <point x="60" y="700" type="line"/>
      <point x="60" y="262" type="line" smooth="yes"/>
      <point x="60" y="88"/>
      <point x="165" y="-20"/>
      <point x="336" y="-20" type="curve" smooth="yes"/>
      <point x="507" y="-20"/>
      <point x="615" y="89"/>
      <point x="615" y="262" type="curve" smooth="yes"/>
      <point x="615" y="700" type="line"/>
      <point x="425" y="700" type="line"/>
      <point x="425" y="278" type="line" smooth="yes"/>
      <point x="425" y="170"/>
      <point x="397" y="120"/>
      <point x="337" y="120" type="curve" smooth="yes"/>
      <point x="277" y="120"/>
      <point x="250" y="169"/>
      <point x="250" y="278" type="curve" smooth="yes"/>
      <point x="250" y="700" type="line"/>
    </contour>
  </outline>
</glyph>
<glyph name="asciicircum" format="2">
  <advance width="515"/>
  <unicode hex="005E"/>
  <outline>
    <contour>
      <point x="50" y="520" type="line"/>
      <point x="98" y="520" type="line"/>
      <point x="257" y="739" type="line"/>
      <point x="417" y="519" type="line"/>
      <point x="465" y="519" type="line"/>
      <point x="303" y="779" type="line"/>
      <point x="211" y="779" type="line"/>
    </contour>
  </outline>
</glyph>
<glyph name="e" format="2">
  <advance width="598"/>
  <unicode hex="0065"/>
  <anchor x="299" y="520" name="top"/>
  <anchor x="299" y="-20" name="bottom"/>
  <anchor x="429" y="-3" name="ogonek"/>
  <outline>
    <contour>
      <point x="215" y="329" type="line"/>
      <point x="219" y="367"/>
      <point x="253" y="390"/>
      <point x="303" y="390" type="curve" smooth="yes"/>
      <point x="353" y="390"/>
      <point x="381" y="367"/>
      <point x="385" y="329" type="curve"/>
    </contour>
    <contour>
      <point x="454" y="158" type="line"/>
      <point x="428" y="135.042"/>
      <point x="381" y="120"/>
      <point x="327" y="120" type="curve" smooth="yes"/>
      <point x="256" y="120"/>
      <point x="215" y="149.667"/>
      <point x="215" y="209" type="curve"/>
      <point x="572" y="209" type="line"/>
      <point x="593.474" y="390.707"/>
      <point x="488.467" y="520"/>
      <point x="301" y="520" type="curve" smooth="yes"/>
      <point x="142" y="520"/>
      <point x="28" y="419"/>
      <point x="28" y="251" type="curve" smooth="yes"/>
      <point x="28" y="81"/>
      <point x="145" y="-20"/>
      <point x="317" y="-20" type="curve" smooth="yes"/>
      <point x="417" y="-20"/>
      <point x="486" y="14"/>
      <point x="542" y="70" type="curve"/>
    </contour>
  </outline>
</glyph>
<glyph name="g" format="2">
  <advance width="634"/>
  <unicode hex="0067"/>
  <anchor x="317" y="520" name="top"/>
  <anchor x="312" y="-220" name="bottom"/>
  <outline>
    <contour>
      <point x="251" y="-20" type="curve" smooth="yes"/>
      <point x="367" y="-20"/>
      <point x="424" y="92"/>
      <point x="424" y="255" type="curve" smooth="yes"/>
      <point x="424" y="417"/>
      <point x="368" y="520"/>
      <point x="245" y="520" type="curve" smooth="yes"/>
      <point x="118" y="520"/>
      <point x="49" y="411"/>
      <point x="49" y="262" type="curve" smooth="yes"/>
      <point x="49" y="99"/>
      <point x="132" y="-20"/>
    </contour>
    <contour>
      <point x="316" y="116" type="curve" smooth="yes"/>
      <point x="269" y="116"/>
      <point x="239" y="167"/>
      <point x="239" y="251" type="curve" smooth="yes"/>
      <point x="239" y="334"/>
      <point x="268" y="383"/>
      <point x="316" y="383" type="curve" smooth="yes"/>
      <point x="363" y="383"/>
      <point x="391" y="335"/>
      <point x="391" y="251" type="curve" smooth="yes"/>
      <point x="391" y="168"/>
      <point x="364" y="116"/>
    </contour>
    <contour>
      <point x="56" y="-130" type="line"/>
      <point x="112" y="-186"/>
      <point x="183" y="-220"/>
      <point x="288" y="-220" type="curve" smooth="yes"/>
      <point x="468" y="-220"/>
      <point x="581" y="-120"/>
      <point x="581" y="52" type="curve" smooth="yes"/>
      <point x="581" y="500" type="line"/>
      <point x="391" y="500" type="line"/>
      <point x="391" y="73.6441" type="line" smooth="yes"/>
      <point x="391" y="-42.3644"/>
      <point x="340" y="-85"/>
      <point x="268" y="-85" type="curve" smooth="yes"/>
      <point x="220" y="-85"/>
      <point x="170" y="-67.9792"/>
      <point x="144" y="-42" type="curve"/>
    </contour>
  </outline>
</glyph>
<glyph name="t" format="2">
  <advance width="365"/>
  <unicode hex="0074"/>
  <anchor x="175" y="630" name="top"/>
  <anchor x="220" y="-20" name="bottom"/>
  <anchor x="302" y="700" name="topright"/>
  <outline>
    <contour>
      <point x="11" y="365" type="line"/>
      <point x="355" y="365" type="line"/>
      <point x="355" y="500" type="line"/>
      <point x="11" y="500" type="line"/>
    </contour>
    <contour>
      <point x="337" y="136" type="line"/>
      <point x="317" y="124.312"/>
      <point x="303" y="119"/>
      <point x="294" y="119" type="curve" smooth="yes"/>
      <point x="275" y="119"/>
      <point x="270" y="138.037"/>
      <point x="270" y="206.171" type="curve" smooth="yes"/>
      <point x="270" y="621" type="line"/>
      <point x="80" y="621" type="line"/>
      <point x="80" y="132" type="line" smooth="yes"/>
      <point x="80" y="29"/>
      <point x="134" y="-21"/>
      <point x="256" y="-21" type="curve" smooth="yes"/>
      <point x="294" y="-21"/>
      <point x="316" y="-16"/>
      <point x="374" y="6" type="curve"/>
    </contour>
  </outline>
</glyph>
<glyph name="w" format="2">
  <advance width="854"/>
  <unicode hex="0077"/>
  <anchor x="427" y="520" name="top"/>
  <anchor x="427" y="-20" name="bottom"/>
  <outline>
    <contour>
      <point x="183" y="0" type="line"/>
      <point x="356" y="0" type="line"/>
      <point x="427" y="306" type="line"/>
      <point x="498" y="0" type="line"/>
      <point x="671" y="0" type="line"/>
      <point x="853" y="500" type="line"/>
      <point x="652" y="500" type="line"/>
      <point x="580" y="228" type="line"/>
      <point x="513" y="500" type="line"/>
      <point x="341" y="500" type="line"/>
      <point x="274" y="228" type="line"/>
      <point x="202" y="500" type="line"/>
      <point x="1" y="500" type="line"/>
    </contour>
  </outline>
</glyph>
<glyph name="z" format="2">
  <advance width="483"/>
  <unicode hex="007A"/>
  <anchor x="241" y="520" name="top"/>
  <anchor x="241" y="-20" name="bottom"/>
  <outline>
    <contour>
      <point x="26" y="0" type="line"/>
      <point x="457" y="0" type="line"/>
      <point x="457" y="130" type="line"/>
      <point x="255" y="130" type="line"/>
      <point x="457" y="380" type="line"/>
      <point x="457" y="500" type="line"/>
      <point x="46" y="500" type="line"/>
      <point x="46" y="370" type="line"/>
      <point x="228" y="370" type="line"/>
      <point x="26" y="120" type="line"/>
    </contour>
  </outline>
</glyph>
<glyph name="twosuperior" format="2">
  <advance width="432"/>
  <unicode hex="00B2"/>
  <outline>
    <contour>
      <point x="34" y="443" type="line"/>
      <point x="310" y="490"/>
      <point x="398" y="551"/>
      <point x="398" y="670" type="curve" smooth="yes"/>
      <point x="398" y="764"/>
      <point x="344" y="833"/>
      <point x="224" y="833" type="curve" smooth="yes"/>
      <point x="146" y="833"/>
      <point x="81" y="804"/>
      <point x="37" y="750" type="curve"/>
      <point x="109" y="678" type="line"/>
      <point x="141" y="715"/>
      <point x="171" y="737"/>
      <point x="212" y="737" type="curve" smooth="yes"/>
      <point x="249" y="737"/>
      <point x="266" y="719"/>
      <point x="266" y="679" type="curve" smooth="yes"/>
      <point x="266" y="622"/>
      <point x="231" y="582"/>
      <point x="34" y="540" type="curve"/>
    </contour>
    <contour>
      <point x="34" y="344" type="line"/>
      <point x="398" y="344" type="line"/>
      <point x="398" y="440" type="line"/>
      <point x="34" y="440" type="line"/>
    </contour>
  </outline>
</glyph>
<glyph name="threesuperior" format="2">
  <advance width="422"/>
  <unicode hex="00B3"/>
  <outline>
    <contour>
      <point x="37" y="408" type="line"/>
      <point x="79" y="363"/>
      <point x="137" y="339"/>
      <point x="215" y="339" type="curve" smooth="yes"/>
      <point x="326" y="339"/>
      <point x="384" y="388"/>
      <point x="384" y="473" type="curve" smooth="yes"/>
      <point x="384" y="560"/>
      <point x="324" y="589"/>
      <point x="149" y="589" type="curve"/>
      <point x="149" y="519" type="line"/>
      <point x="221" y="519"/>
      <point x="253" y="506"/>
      <point x="253" y="474" type="curve" smooth="yes"/>
      <point x="253" y="449"/>
      <point x="233" y="435"/>
      <point x="201" y="435" type="curve" smooth="yes"/>
      <point x="168" y="435"/>
      <point x="137" y="450"/>
      <point x="112" y="483" type="curve"/>
    </contour>
    <contour>
      <point x="149" y="593" type="line"/>
      <point x="302" y="593"/>
      <point x="368" y="627"/>
      <point x="368" y="703" type="curve" smooth="yes"/>
      <point x="368" y="772"/>
      <point x="314" y="832"/>
      <point x="211" y="832" type="curve" smooth="yes"/>
      <point x="137" y="832"/>
      <point x="79" y="801"/>
      <point x="56" y="777" type="curve"/>
      <point x="131" y="702" type="line"/>
      <point x="153" y="726"/>
      <point x="175" y="736"/>
      <point x="196" y="736" type="curve" smooth="yes"/>
      <point x="219" y="736"/>
      <point x="235" y="724"/>
      <point x="235" y="702" type="curve" smooth="yes"/>
      <point x="235" y="674"/>
      <point x="211" y="663"/>
      <point x="149" y="663" type="curve"/>
    </contour>
  </outline>
</glyph>
<glyph name="Iogonek" format="2">
  <advance width="326"/>
  <unicode hex="012E"/>
  <anchor x="163" y="719" name="top"/>
  <anchor x="163" y="-20" name="bottom"/>
  <anchor x="-50" y="500" name="topgr"/>
  <outline>
    <contour>
      <point x="68" y="0" type="line"/>
      <point x="258" y="0" type="line"/>
      <point x="258" y="700" type="line"/>
      <point x="68" y="700" type="line"/>
    </contour>
    <contour>
      <point x="259" y="-183" type="line"/>
      <point x="216.672" y="-169"/>
      <point x="196" y="-138"/>
      <point x="196" y="-104" type="curve" smooth="yes"/>
      <point x="196" y="-67"/>
      <point x="219.619" y="-24"/>
      <point x="258" y="0" type="curve"/>
      <point x="198.709" y="3" type="line"/>
      <point x="102.236" y="-14"/>
      <point x="54" y="-53"/>
      <point x="54" y="-105" type="curve" smooth="yes"/>
      <point x="54" y="-158"/>
      <point x="105.25" y="-196"/>
      <point x="184.637" y="-206" type="curve"/>
    </contour>
  </outline>
</glyph>
<glyph name="dotlessi" format="2">
  <advance width="272"/>
  <unicode hex="0131"/>
  <anchor x="136" y="520" name="top"/>
  <anchor x="136" y="-20" name="bottom"/>
  <anchor x="225" y="-2" name="ogonek"/>
  <outline>
    <contour>
      <point x="41" y="0" type="line"/>
      <point x="231" y="0" type="line"/>
      <point x="231" y="500" type="line"/>
      <point x="41" y="500" type="line"/>
    </contour>
  </outline>
</glyph>
<glyph name="kgreenlandic" format="2">
  <advance width="594"/>
  <unicode hex="0138"/>
  <outline>
    <contour>
      <point x="54" y="0" type="line"/>
      <point x="54" y="500" type="line"/>
      <point x="244" y="500" type="line"/>
      <point x="244" y="0" type="line"/>
    </contour>
    <contour>
      <point x="124" y="189" type="line"/>
      <point x="122" y="323" type="line"/>
      <point x="315" y="323" type="line" name="iv02"/>
      <point x="390" y="500" type="line"/>
      <point x="579" y="500" type="line" name="av02"/>
      <point x="458" y="263" type="line"/>
      <point x="592" y="0" type="line"/>
      <point x="380" y="0" type="line" name="ab02"/>
      <point x="288" y="189" type="line" name="iv01"/>
    </contour>
  </outline>
</glyph>
<glyph name="Eng" format="2">
  <advance width="752"/>
  <unicode hex="014A"/>
  <anchor x="376" y="719" name="top"/>
  <anchor x="411" y="-229" name="bottom"/>
  <outline>
    <contour>
      <point x="68" y="0" type="line"/>
      <point x="258" y="0" type="line"/>
      <point x="258" y="379" type="line"/>
      <point x="504" y="0" type="line"/>
      <point x="684" y="107.569" type="line"/>
      <point x="684" y="700" type="line"/>
      <point x="494" y="700" type="line"/>
      <point x="494" y="321" type="line"/>
      <point x="248" y="700" type="line"/>
      <point x="68" y="700" type="line"/>
    </contour>
    <contour>
      <point x="194" y="-98" type="line"/>
      <point x="259" y="-196"/>
      <point x="333" y="-240"/>
      <point x="442" y="-240" type="curve" smooth="yes"/>
      <point x="606" y="-240"/>
      <point x="684" y="-140"/>
      <point x="684" y="22" type="curve" smooth="yes"/>
      <point x="684" y="480" type="line"/>
      <point x="494" y="480" type="line"/>
      <point x="494" y="29" type="line" smooth="yes"/>
      <point x="494" y="-56"/>
      <point x="477.534" y="-100"/>
      <point x="427.967" y="-100" type="curve" smooth="yes"/>
      <point x="381.576" y="-100"/>
      <point x="340.102" y="-60.4312"/>
      <point x="300" y="8" type="curve"/>
    </contour>
  </outline>
</glyph>
<glyph name="tcedilla" format="2">
  <advance width="365"/>
  <unicode hex="0163"/>
  <anchor x="175" y="630" name="top"/>
  <anchor x="302" y="700" name="topright"/>
  <anchor x="200" y="-218" name="bottom"/>
  <outline>
    <contour>
      <point x="11" y="365" type="line"/>
      <point x="355" y="365" type="line"/>
      <point x="355" y="500" type="line"/>
      <point x="11" y="500" type="line"/>
    </contour>
    <contour>
      <point x="337" y="136" type="line"/>
      <point x="317" y="124.312"/>
      <point x="303" y="119"/>
      <point x="294" y="119" type="curve" smooth="yes"/>
      <point x="275" y="119"/>
      <point x="270" y="138.037"/>
      <point x="270" y="206.171" type="curve" smooth="yes"/>
      <point x="270" y="621" type="line"/>
      <point x="80" y="621" type="line"/>
      <point x="80" y="132" type="line" smooth="yes"/>
      <point x="80" y="29"/>
      <point x="134" y="-21"/>
      <point x="256" y="-21" type="curve" smooth="yes"/>
      <point x="294" y="-21"/>
      <point x="316" y="-16"/>
      <point x="374" y="6" type="curve"/>
    </contour>
    <contour>
      <point x="68" y="-205" type="line"/>
      <point x="90" y="-211"/>
      <point x="123" y="-218"/>
      <point x="176" y="-218" type="curve" smooth="yes"/>
      <point x="279" y="-218"/>
      <point x="328" y="-191"/>
      <point x="328" y="-134" type="curve" smooth="yes"/>
      <point x="328" y="-87"/>
      <point x="295" y="-64"/>
      <point x="227" y="-64" type="curve"/>
      <point x="274.423" y="20.4105" type="line"/>
      <point x="172.423" y="20.4105" type="line"/>
      <point x="104" y="-109" type="line"/>
      <point x="120" y="-107"/>
      <point x="145" y="-105"/>
      <point x="162" y="-105" type="curve" smooth="yes"/>
      <point x="192" y="-105"/>
      <point x="208" y="-111"/>
      <point x="208" y="-133" type="curve" smooth="yes"/>
      <point x="208" y="-151"/>
      <point x="197" y="-164"/>
      <point x="160" y="-164" type="curve" smooth="yes"/>
      <point x="139" y="-164"/>
      <point x="110" y="-160"/>
      <point x="94" y="-154" type="curve"/>
    </contour>
  </outline>
</glyph>
<glyph name="florin" format="2">
  <advance width="533"/>
  <unicode hex="0192"/>
  <outline>
    <contour>
      <point x="-103" y="6" type="line"/>
      <point x="-41" y="-11"/>
      <point x="8" y="-17"/>
      <point x="56" y="-17" type="curve" smooth="yes"/>
      <point x="325" y="-17"/>
      <point x="312" y="173"/>
      <point x="312" y="335" type="curve" smooth="yes"/>
      <point x="312" y="497"/>
      <point x="299" y="586"/>
      <point x="398" y="586" type="curve" smooth="yes"/>
      <point x="430" y="586"/>
      <point x="462" y="577"/>
      <point x="516" y="560" type="curve"/>
      <point x="548" y="696" type="line"/>
      <point x="486" y="713"/>
      <point x="436" y="719"/>
      <point x="388" y="719" type="curve" smooth="yes"/>
      <point x="127" y="719"/>
      <point x="124" y="545"/>
      <point x="124" y="438" type="curve" smooth="yes"/>
      <point x="124" y="184"/>
      <point x="141" y="116"/>
      <point x="48" y="116" type="curve" smooth="yes"/>
      <point x="21" y="116"/>
      <point x="-12" y="122"/>
      <point x="-69" y="140" type="curve"/>
    </contour>
    <contour>
      <point x="19" y="362" type="line"/>
      <point x="485" y="362" type="line"/>
      <point x="485" y="494" type="line"/>
      <point x="19" y="494" type="line"/>
    </contour>
  </outline>
</glyph>
<glyph name="macroncomb" format="2">
  <advance width="360"/>
  <unicode hex="0304"/>
  <anchor x="180" y="640" name="top"/>
  <anchor x="180" y="500" name="_top"/>
  <outline>
    <contour>
      <point x="20.5" y="584" type="line"/>
      <point x="339.5" y="584" type="line"/>
      <point x="339.5" y="652" type="line"/>
      <point x="20.5" y="652" type="line"/>
    </contour>
  </outline>
</glyph>
<glyph name="dotaccentcomb" format="2">
  <advance width="211"/>
  <unicode hex="0307"/>
  <anchor x="105" y="697" name="top"/>
  <anchor x="105" y="500" name="_top"/>
  <outline>
    <contour>
      <point x="10.5" y="616.951" type="curve" smooth="yes"/>
      <point x="10.9076" y="575.1"/>
      <point x="43.1985" y="524.688"/>
      <point x="106.927" y="524.688" type="curve" smooth="yes"/>
      <point x="168.753" y="524.688"/>
      <point x="201.092" y="571.295"/>
      <point x="200.5" y="617.902" type="curve" smooth="yes"/>
      <point x="201.092" y="664.51"/>
      <point x="168.753" y="707.312"/>
      <point x="107.878" y="707.312" type="curve" smooth="yes"/>
      <point x="43.1985" y="707.312"/>
      <point x="10.0924" y="658.805"/>
    </contour>
  </outline>
</glyph>
<glyph name="ringcomb" format="2">
  <advance width="270"/>
  <unicode hex="030A"/>
  <anchor x="135" y="723" name="top"/>
  <anchor x="135" y="500" name="_top"/>
  <outline>
    <contour>
      <point x="27" y="618" type="curve" smooth="yes"/>
      <point x="27" y="681"/>
      <point x="70" y="723"/>
      <point x="135" y="723" type="curve" smooth="yes"/>
      <point x="200" y="723"/>
      <point x="243" y="681"/>
      <point x="243" y="618" type="curve" smooth="yes"/>
      <point x="243" y="554"/>
      <point x="200" y="513"/>
      <point x="135" y="513" type="curve" smooth="yes"/>
      <point x="70" y="513"/>
      <point x="27" y="554"/>
    </contour>
    <contour>
      <point x="135" y="580" type="curve" smooth="yes"/>
      <point x="158" y="580"/>
      <point x="172" y="595"/>
      <point x="172" y="618" type="curve" smooth="yes"/>
      <point x="172" y="641"/>
      <point x="158" y="656"/>
      <point x="135" y="656" type="curve" smooth="yes"/>
      <point x="112" y="656"/>
      <point x="98" y="641"/>
      <point x="98" y="618" type="curve" smooth="yes"/>
      <point x="98" y="594"/>
      <point x="112" y="580"/>
    </contour>
  </outline>
</glyph>
<glyph name="ogonekcomb" format="2">
  <advance width="209"/>
  <unicode hex="0328"/>
  <anchor x="199" y="0" name="_ogonek"/>
  <outline>
    <contour>
      <point x="207" y="-180" type="line"/>
      <point x="164.672" y="-166"/>
      <point x="144" y="-135"/>
      <point x="144" y="-101" type="curve" smooth="yes"/>
      <point x="144" y="-64"/>
      <point x="167.619" y="-21"/>
      <point x="206" y="3" type="curve"/>
      <point x="146.709" y="6" type="line"/>
      <point x="50.2365" y="-11"/>
      <point x="2" y="-50"/>
      <point x="2" y="-102" type="curve" smooth="yes"/>
      <point x="2" y="-155"/>
      <point x="53.25" y="-193"/>
      <point x="132.637" y="-203" type="curve"/>
    </contour>
  </outline>
</glyph>
<glyph name="gamma" format="2">
  <advance width="543"/>
  <unicode hex="03B3"/>
  <anchor x="272" y="520" name="topgr"/>
  <outline>
    <contour>
      <point x="176" y="-200" type="line"/>
      <point x="366" y="-200" type="line"/>
      <point x="366" y="78" type="line"/>
      <point x="345" y="-40" type="line"/>
      <point x="542" y="500" type="line"/>
      <point x="340" y="500" type="line"/>
      <point x="259" y="195" type="line"/>
      <point x="284" y="195" type="line"/>
      <point x="203" y="500" type="line"/>
      <point x="1" y="500" type="line"/>
      <point x="198" y="-40" type="line"/>
      <point x="176" y="78" type="line"/>
    </contour>
  </outline>
</glyph>
<glyph name="delta" format="2">
  <advance width="616"/>
  <unicode hex="03B4"/>
  <anchor x="308" y="721" name="topgr"/>
  <outline>
    <contour>
      <point x="39" y="226" type="curve" smooth="yes"/>
      <point x="39" y="82"/>
      <point x="143" y="-20"/>
      <point x="309" y="-20" type="curve" smooth="yes"/>
      <point x="470" y="-20"/>
      <point x="577" y="75"/>
      <point x="577" y="226" type="curve" smooth="yes"/>
      <point x="577" y="376"/>
      <point x="471" y="467"/>
      <point x="310" y="467" type="curve" smooth="yes"/>
      <point x="142" y="467"/>
      <point x="39" y="369"/>
    </contour>
    <contour>
      <point x="311" y="114" type="curve" smooth="yes"/>
      <point x="256" y="114"/>
      <point x="229" y="154"/>
      <point x="229" y="226" type="curve" smooth="yes"/>
      <point x="229" y="297"/>
      <point x="255" y="333"/>
      <point x="309" y="333" type="curve" smooth="yes"/>
      <point x="362" y="333"/>
      <point x="387" y="297"/>
      <point x="387" y="223" type="curve" smooth="yes"/>
      <point x="387" y="149"/>
      <point x="362" y="114"/>
    </contour>
    <contour>
      <point x="439" y="443" type="line"/>
      <point x="338" y="480"/>
      <point x="291" y="516"/>
      <point x="291" y="552" type="curve" smooth="yes"/>
      <point x="291" y="574"/>
      <point x="308" y="590"/>
      <point x="342" y="590" type="curve" smooth="yes"/>
      <point x="379" y="590"/>
      <point x="423" y="571"/>
      <point x="449" y="552" type="curve"/>
      <point x="537" y="640" type="line"/>
      <point x="482" y="686"/>
      <point x="413" y="720"/>
      <point x="315" y="720" type="curve" smooth="yes"/>
      <point x="183" y="720"/>
      <point x="101" y="658"/>
      <point x="101" y="576" type="curve" smooth="yes"/>
      <point x="101" y="501"/>
      <point x="168" y="449"/>
      <point x="290" y="438" type="curve"/>
    </contour>
  </outline>
</glyph>
<glyph name="epsilon" format="2">
  <advance width="505"/>
  <unicode hex="03B5"/>
  <anchor x="253" y="520" name="topgr"/>
  <outline>
    <contour>
      <point x="373" y="170" type="line"/>
      <point x="339" y="124"/>
      <point x="309" y="113"/>
      <point x="271" y="113" type="curve" smooth="yes"/>
      <point x="233" y="113"/>
      <point x="216" y="123.304"/>
      <point x="216" y="146.722" type="curve" smooth="yes"/>
      <point x="216" y="178.57"/>
      <point x="247" y="187"/>
      <point x="363" y="187" type="curve"/>
      <point x="363" y="317" type="line"/>
      <point x="262" y="317"/>
      <point x="234" y="325.4"/>
      <point x="234" y="355.267" type="curve" smooth="yes"/>
      <point x="234" y="376.733"/>
      <point x="248" y="387"/>
      <point x="278" y="387" type="curve" smooth="yes"/>
      <point x="307" y="387"/>
      <point x="337" y="377"/>
      <point x="370" y="337" type="curve"/>
      <point x="463" y="430" type="line"/>
      <point x="416" y="482"/>
      <point x="348" y="520"/>
      <point x="241" y="520" type="curve" smooth="yes"/>
      <point x="101" y="520"/>
      <point x="48" y="452.122"/>
      <point x="48" y="379.102" type="curve" smooth="yes"/>
      <point x="48" y="318.423"/>
      <point x="75" y="267"/>
      <point x="204" y="253" type="curve"/>
      <point x="67" y="237"/>
      <point x="29" y="201.955"/>
      <point x="29" y="129.917" type="curve" smooth="yes"/>
      <point x="29" y="49.1174"/>
      <point x="88" y="-20"/>
      <point x="240" y="-20" type="curve" smooth="yes"/>
      <point x="352" y="-20"/>
      <point x="423" y="18"/>
      <point x="466" y="77" type="curve"/>
    </contour>
  </outline>
</glyph>
<glyph name="lambda" format="2">
  <advance width="600"/>
  <unicode hex="03BB"/>
  <anchor x="300" y="721" name="topgr"/>
  <outline>
    <contour>
      <point x="4" y="0" type="line"/>
      <point x="197" y="0" type="line"/>
      <point x="303" y="316" type="line"/>
      <point x="196" y="500" type="line"/>
    </contour>
    <contour>
      <point x="573" y="133" type="line"/>
      <point x="555" y="123.25"/>
      <point x="545" y="120"/>
      <point x="533" y="120" type="curve" smooth="yes"/>
      <point x="512" y="120"/>
      <point x="483.645" y="129.926"/>
      <point x="462" y="203.263" type="curve" smooth="yes"/>
      <point x="364" y="535.314" type="line" smooth="yes"/>
      <point x="319.622" y="685.679"/>
      <point x="259" y="752"/>
      <point x="141" y="752" type="curve" smooth="yes"/>
      <point x="106" y="752"/>
      <point x="70" y="745.739"/>
      <point x="14" y="728" type="curve"/>
      <point x="52" y="604" type="line"/>
      <point x="69" y="610"/>
      <point x="85" y="612"/>
      <point x="95" y="612" type="curve" smooth="yes"/>
      <point x="146" y="612"/>
      <point x="170.681" y="562.906"/>
      <point x="194" y="484" type="curve" smooth="yes"/>
      <point x="280" y="193" type="line" smooth="yes"/>
      <point x="334.076" y="10.0224"/>
      <point x="403" y="-20"/>
      <point x="483" y="-20" type="curve" smooth="yes"/>
      <point x="524" y="-20"/>
      <point x="554" y="-12"/>
      <point x="600" y="3" type="curve"/>
    </contour>
  </outline>
</glyph>
<glyph name="nu" format="2">
  <advance width="595"/>
  <unicode hex="03BD"/>
  <outline>
    <contour>
      <point x="180" y="-19" type="line"/>
      <point x="1" y="500" type="line"/>
      <point x="203" y="500" type="line"/>
      <point x="320" y="117" type="line"/>
      <point x="351" y="140"/>
      <point x="365" y="193"/>
      <point x="365" y="253" type="curve" smooth="yes"/>
      <point x="365" y="333"/>
      <point x="340" y="425"/>
      <point x="296" y="500" type="curve"/>
      <point x="503" y="500" type="line"/>
      <point x="520" y="463"/>
      <point x="556" y="352"/>
      <point x="556" y="249" type="curve" smooth="yes"/>
      <point x="556" y="81"/>
      <point x="460" y="-19"/>
      <point x="285" y="-19" type="curve" smooth="yes"/>
    </contour>
  </outline>
</glyph>
<glyph name="pi" format="2">
  <advance width="645"/>
  <unicode hex="03C0"/>
  <anchor x="322" y="520" name="topgr"/>
  <outline>
    <contour>
      <point x="85" y="0" type="line"/>
      <point x="275" y="0" type="line"/>
      <point x="275" y="367" type="line"/>
      <point x="358" y="367" type="line"/>
      <point x="358" y="189" type="line" smooth="yes"/>
      <point x="358" y="31"/>
      <point x="420" y="0"/>
      <point x="605" y="0" type="curve"/>
      <point x="605" y="135" type="line"/>
      <point x="568" y="135"/>
      <point x="548" y="140"/>
      <point x="548" y="195" type="curve" smooth="yes"/>
      <point x="548" y="367" type="line"/>
      <point x="616" y="367" type="line"/>
      <point x="616" y="500" type="line"/>
      <point x="19" y="500" type="line"/>
      <point x="19" y="367" type="line"/>
      <point x="85" y="367" type="line"/>
    </contour>
  </outline>
</glyph>
<glyph name="chi" format="2">
  <advance width="646"/>
  <unicode hex="03C7"/>
  <anchor x="323" y="520" name="topgr"/>
  <outline>
    <contour>
      <point x="29" y="386" type="line"/>
      <point x="137.512" y="386"/>
      <point x="188.174" y="325.826"/>
      <point x="237.72" y="138.091" type="curve" smooth="yes"/>
      <point x="305.299" y="-117.972"/>
      <point x="415.999" y="-219"/>
      <point x="629" y="-219" type="curve"/>
      <point x="629" y="-85" type="line"/>
      <point x="523.656" y="-85"/>
      <point x="475.818" y="-27.5709"/>
      <point x="425.346" y="159.484" type="curve" smooth="yes"/>
      <point x="357.313" y="411.624"/>
      <point x="238.166" y="520"/>
      <point x="29" y="520" type="curve"/>
    </contour>
    <contour>
      <point x="11" y="-200" type="line" name="ab01"/>
      <point x="220" y="-200" type="line"/>
      <point x="634" y="500" type="line" name="at01"/>
      <point x="425" y="500" type="line"/>
    </contour>
  </outline>
</glyph>
<glyph name="kaisymbol" format="2">
  <advance width="594"/>
  <unicode hex="03D7"/>
  <outline>
    <contour>
      <point x="54" y="0" type="line"/>
      <point x="244" y="0" type="line"/>
      <point x="244" y="500" type="line"/>
      <point x="54" y="500" type="line"/>
    </contour>
    <contour>
      <point x="124" y="189" type="line"/>
      <point x="288" y="189" type="line" name="iv01"/>
      <point x="380" y="0" type="line" name="ab02"/>
      <point x="592" y="0" type="line"/>
      <point x="458" y="263" type="line"/>
      <point x="579" y="500" type="line" name="av02"/>
      <point x="390" y="500" type="line"/>
      <point x="315" y="323" type="line" name="iv02"/>
      <point x="122" y="323" type="line"/>
    </contour>
    <contour>
      <point x="230" y="-210" type="line"/>
      <point x="441" y="-210"/>
      <point x="592" y="-141"/>
      <point x="592" y="0" type="curve"/>
      <point x="380" y="1" type="line"/>
      <point x="380" y="-67"/>
      <point x="349.799" y="-76"/>
      <point x="230" y="-76" type="curve"/>
    </contour>
  </outline>
</glyph>
<glyph name="Djecyr" format="2">
  <advance width="770"/>
  <unicode hex="0402"/>
  <outline>
    <contour>
      <point x="161.5" y="0" type="line"/>
      <point x="162" y="560" type="line"/>
      <point x="21" y="560" type="line"/>
      <point x="21" y="700" type="line"/>
      <point x="564" y="700" type="line"/>
      <point x="564" y="560" type="line"/>
      <point x="351.5" y="560" type="line"/>
      <point x="351.5" y="380" type="line"/>
      <point x="383.458" y="424"/>
      <point x="433.32" y="466"/>
      <point x="519.084" y="466" type="curve" smooth="yes"/>
      <point x="656.704" y="466"/>
      <point x="730.5" y="359"/>
      <point x="730.5" y="221" type="curve" smooth="yes"/>
      <point x="730.5" y="78"/>
      <point x="650.626" y="-21"/>
      <point x="513.841" y="-21" type="curve" smooth="yes" name="dv01"/>
      <point x="472.906" y="-21"/>
      <point x="459.926" y="-12"/>
      <point x="413" y="2" type="curve"/>
      <point x="450" y="132" type="line"/>
      <point x="469.106" y="122.25"/>
      <point x="484.189" y="119"/>
      <point x="494.244" y="119" type="curve" smooth="yes"/>
      <point x="524.411" y="119"/>
      <point x="540.5" y="150.147"/>
      <point x="540.5" y="208.422" type="curve" smooth="yes"/>
      <point x="540.5" y="285.787"/>
      <point x="513.356" y="331"/>
      <point x="461.08" y="331" type="curve" smooth="yes"/>
      <point x="394.729" y="331"/>
      <point x="351.5" y="256"/>
      <point x="351.5" y="180" type="curve" smooth="yes"/>
      <point x="351.5" y="0" type="line"/>
    </contour>
  </outline>
</glyph>
<glyph name="Tshecyr" format="2">
  <advance width="752"/>
  <unicode hex="040B"/>
  <outline>
    <contour>
      <point x="150" y="0" type="line"/>
      <point x="340" y="0" type="line"/>
      <point x="340" y="560" type="line"/>
      <point x="562" y="560" type="line"/>
      <point x="562" y="700" type="line"/>
      <point x="21" y="700" type="line"/>
      <point x="21" y="560" type="line"/>
      <point x="150" y="560" type="line"/>
    </contour>
    <contour>
      <point x="340" y="196" type="line"/>
      <point x="340" y="302"/>
      <point x="373" y="348"/>
      <point x="433" y="348" type="curve" smooth="yes"/>
      <point x="480" y="348"/>
      <point x="502" y="314"/>
      <point x="502" y="256" type="curve" smooth="yes"/>
      <point x="502" y="0" type="line"/>
      <point x="693" y="0" type="line"/>
      <point x="693" y="256.526" type="line" smooth="yes"/>
      <point x="693" y="404.83"/>
      <point x="616" y="488"/>
      <point x="490" y="488" type="curve" smooth="yes"/>
      <point x="375" y="488"/>
      <point x="310" y="419.766"/>
      <point x="296" y="322.433" type="curve"/>
    </contour>
  </outline>
</glyph>
<glyph name="Decyr" format="2">
  <advance width="864"/>
  <unicode hex="0414"/>
  <outline>
    <contour>
      <point x="165" y="-140" type="line"/>
      <point x="165" y="-47"/>
      <point x="162" y="0"/>
      <point x="221" y="0" type="curve" smooth="yes"/>
      <point x="634" y="0" type="line" smooth="yes"/>
      <point x="705" y="0"/>
      <point x="697" y="-42"/>
      <point x="697" y="-140" type="curve"/>
      <point x="843" y="-140" type="line"/>
      <point x="843" y="117"/>
      <point x="811" y="139"/>
      <point x="711" y="139" type="curve"/>
      <point x="711" y="700" type="line"/>
      <point x="232" y="700" type="line"/>
      <point x="232" y="670" type="line" smooth="yes"/>
      <point x="232" y="299"/>
      <point x="219" y="201"/>
      <point x="151" y="141" type="curve"/>
      <point x="66" y="141"/>
      <point x="19" y="117"/>
      <point x="19" y="-140" type="curve"/>
    </contour>
    <contour>
      <point x="332" y="140" type="line"/>
      <point x="397.95" y="208.59"/>
      <point x="418.28" y="290.33"/>
      <point x="422.22" y="559.99" type="curve"/>
      <point x="520" y="560" type="line"/>
      <point x="520" y="140" type="line"/>
    </contour>
  </outline>
</glyph>
<glyph name="Zhecyr" format="2">
  <advance width="925"/>
  <unicode hex="0416"/>
  <anchor x="463" y="720" name="top"/>
  <outline>
    <contour>
      <point x="45" y="700" type="line"/>
      <point x="227" y="700" type="line"/>
      <point x="241" y="548" type="line" smooth="yes"/>
      <point x="248" y="474"/>
      <point x="264" y="445"/>
      <point x="330" y="445" type="curve" smooth="yes"/>
      <point x="368" y="445" type="line"/>
      <point x="368" y="700" type="line"/>
      <point x="558" y="700" type="line"/>
      <point x="558" y="445" type="line"/>
      <point x="596" y="445" type="line" smooth="yes"/>
      <point x="662" y="445"/>
      <point x="678" y="475"/>
      <point x="685" y="549" type="curve" smooth="yes"/>
      <point x="699" y="700" type="line"/>
      <point x="881" y="700" type="line"/>
      <point x="860" y="473" type="line"/>
      <point x="853.08" y="412.88"/>
      <point x="832.02" y="369.19"/>
      <point x="799.66" y="341.45" type="curve"/>
      <point x="924" y="0" type="line"/>
      <point x="722" y="0" type="line"/>
      <point x="610.75" y="305" type="line"/>
      <point x="558" y="305" type="line"/>
      <point x="558" y="0" type="line"/>
      <point x="368" y="0" type="line"/>
      <point x="368" y="305" type="line"/>
      <point x="315.25" y="305" type="line"/>
      <point x="204" y="0" type="line"/>
      <point x="2" y="0" type="line"/>
      <point x="126.34" y="341.45" type="line"/>
      <point x="93.98" y="369.19"/>
      <point x="72.92" y="412.88"/>
      <point x="66" y="473" type="curve"/>
    </contour>
  </outline>
</glyph>
<glyph name="Zecyr" format="2">
  <advance width="588"/>
  <unicode hex="0417"/>
  <anchor x="294" y="-20" name="bottom"/>
  <anchor x="294" y="719" name="top"/>
  <outline>
    <contour>
      <point x="18" y="102" type="line"/>
      <point x="87.8704" y="24"/>
      <point x="162.731" y="-20"/>
      <point x="282.509" y="-20" type="curve" smooth="yes"/>
      <point x="448.202" y="-20"/>
      <point x="558" y="64"/>
      <point x="558" y="194" type="curve" smooth="yes"/>
      <point x="558" y="285"/>
      <point x="504.552" y="354"/>
      <point x="367" y="371" type="curve"/>
      <point x="478.579" y="398"/>
      <point x="524" y="448"/>
      <point x="524" y="533" type="curve" smooth="yes"/>
      <point x="524" y="653"/>
      <point x="432.182" y="720"/>
      <point x="294.455" y="720" type="curve" smooth="yes"/>
      <point x="178.684" y="720"/>
      <point x="77.8834" y="672"/>
      <point x="19" y="599" type="curve"/>
      <point x="125" y="493" type="line"/>
      <point x="172.226" y="551.674"/>
      <point x="226.486" y="580"/>
      <point x="274.716" y="580" type="curve" smooth="yes"/>
      <point x="318.928" y="580"/>
      <point x="334" y="556.847"/>
      <point x="334" y="523.627" type="curve" smooth="yes"/>
      <point x="334" y="483.36"/>
      <point x="311.761" y="441.08"/>
      <point x="241" y="429" type="curve"/>
      <point x="241" y="295" type="line"/>
      <point x="316.6" y="303"/>
      <point x="368" y="268"/>
      <point x="368" y="210" type="curve" smooth="yes"/>
      <point x="368" y="160"/>
      <point x="328.843" y="120"/>
      <point x="273.616" y="120" type="curve" smooth="yes"/>
      <point x="228.43" y="120"/>
      <point x="175.211" y="146"/>
      <point x="124" y="208" type="curve"/>
    </contour>
  </outline>
</glyph>
<glyph name="Ucyr" format="2">
  <advance width="612"/>
  <unicode hex="0423"/>
  <anchor x="306" y="719" name="top"/>
  <anchor x="317" y="-20" name="bottom"/>
  <outline>
    <contour>
      <point x="81" y="-90" type="line"/>
      <point x="230" y="-90"/>
      <point x="333" y="-54"/>
      <point x="366" y="36" type="curve" smooth="yes"/>
      <point x="608" y="700" type="line"/>
      <point x="406" y="700" type="line"/>
      <point x="227" y="150" type="line" smooth="yes"/>
      <point x="207.327" y="89.5519"/>
      <point x="154" y="50"/>
      <point x="81" y="50" type="curve"/>
    </contour>
    <contour>
      <point x="196" y="138" type="line"/>
      <point x="247" y="138" type="line"/>
      <point x="374" y="142" type="line"/>
      <point x="203" y="700" type="line"/>
      <point x="2" y="700" type="line"/>
    </contour>
  </outline>
</glyph>
<glyph name="Efcyr" format="2">
  <advance width="836"/>
  <unicode hex="0424"/>
  <outline>
    <contour>
      <point x="323" y="-20" type="line"/>
      <point x="513" y="-20" type="line"/>
      <point x="513" y="60" type="line"/>
      <point x="676" y="60"/>
      <point x="803" y="180"/>
      <point x="803" y="353" type="curve" smooth="yes"/>
      <point x="803" y="525"/>
      <point x="677" y="642"/>
      <point x="513" y="642" type="curve"/>
      <point x="513" y="722" type="line"/>
      <point x="323" y="722" type="line"/>
      <point x="323" y="642" type="line"/>
      <point x="159" y="642"/>
      <point x="33" y="525"/>
      <point x="33" y="353" type="curve" smooth="yes"/>
      <point x="33" y="180"/>
      <point x="160" y="60"/>
      <point x="323" y="60" type="curve"/>
    </contour>
    <contour>
      <point x="513" y="502" type="line"/>
      <point x="570" y="502"/>
      <point x="612" y="450"/>
      <point x="612" y="355" type="curve" smooth="yes"/>
      <point x="612" y="258"/>
      <point x="569" y="200"/>
      <point x="513" y="200" type="curve"/>
    </contour>
    <contour>
      <point x="323" y="200" type="line"/>
      <point x="270" y="200"/>
      <point x="224" y="261"/>
      <point x="224" y="357" type="curve" smooth="yes"/>
      <point x="224" y="449"/>
      <point x="267" y="502"/>
      <point x="323" y="502" type="curve"/>
    </contour>
  </outline>
</glyph>
<glyph name="Tsecyr" format="2">
  <advance width="760"/>
  <unicode hex="0426"/>
  <outline>
    <contour>
      <point x="68" y="0" type="line"/>
      <point x="530" y="0" type="line" smooth="yes"/>
      <point x="601" y="0"/>
      <point x="593" y="-42"/>
      <point x="593" y="-140" type="curve"/>
      <point x="739" y="-140" type="line"/>
      <point x="739" y="112"/>
      <point x="707" y="140"/>
      <point x="607" y="140" type="curve"/>
      <point x="607" y="701" type="line"/>
      <point x="416" y="701" type="line"/>
      <point x="416" y="140" type="line"/>
      <point x="259" y="140" type="line"/>
      <point x="259" y="701" type="line"/>
      <point x="68" y="701" type="line"/>
    </contour>
  </outline>
</glyph>
<glyph name="Hardcyr" format="2">
  <advance width="735"/>
  <unicode hex="042A"/>
  <outline>
    <contour>
      <point x="21" y="559" type="line"/>
      <point x="194" y="559" type="line"/>
      <point x="227" y="694" type="line"/>
      <point x="227" y="700" type="line"/>
      <point x="21" y="700" type="line"/>
    </contour>
    <contour>
      <point x="170" y="0" type="line"/>
      <point x="445" y="0" type="line" smooth="yes"/>
      <point x="606" y="0"/>
      <point x="696" y="93"/>
      <point x="696" y="224" type="curve" smooth="yes"/>
      <point x="696" y="354"/>
      <point x="606" y="449"/>
      <point x="445" y="449" type="curve" smooth="yes"/>
      <point x="361" y="449" type="line"/>
      <point x="361" y="700" type="line"/>
      <point x="170" y="700" type="line"/>
    </contour>
    <contour>
      <point x="361" y="140" type="line"/>
      <point x="361" y="308" type="line"/>
      <point x="386" y="308" type="line" smooth="yes"/>
      <point x="458" y="308"/>
      <point x="505" y="298"/>
      <point x="505" y="232" type="curve" smooth="yes"/>
      <point x="505" y="165"/>
      <point x="458" y="140"/>
      <point x="386" y="140" type="curve" smooth="yes"/>
    </contour>
  </outline>
</glyph>
<glyph name="Ereversedcyr" format="2">
  <advance width="694"/>
  <unicode hex="042D"/>
  <anchor x="330" y="719" name="top"/>
  <outline>
    <contour>
      <point x="196" y="288" type="line"/>
      <point x="196" y="428" type="line"/>
      <point x="551" y="428" type="line"/>
      <point x="551" y="288" type="line"/>
    </contour>
    <contour>
      <point x="139" y="208" type="line"/>
      <point x="194.668" y="147.864"/>
      <point x="243.377" y="124"/>
      <point x="302.027" y="124" type="curve" smooth="yes"/>
      <point x="410.38" y="124"/>
      <point x="474" y="206.719"/>
      <point x="474" y="357.386" type="curve" smooth="yes"/>
      <point x="474" y="499.19"/>
      <point x="417.338" y="576"/>
      <point x="306.997" y="576" type="curve" smooth="yes"/>
      <point x="243.377" y="576"/>
      <point x="192.68" y="550.907"/>
      <point x="139" y="493" type="curve"/>
      <point x="33" y="599" type="line"/>
      <point x="87" y="665"/>
      <point x="183" y="720"/>
      <point x="314" y="720" type="curve" smooth="yes"/>
      <point x="529" y="720"/>
      <point x="667" y="572"/>
      <point x="667" y="361" type="curve" smooth="yes"/>
      <point x="667" y="140"/>
      <point x="517" y="-20"/>
      <point x="301" y="-20" type="curve" smooth="yes"/>
      <point x="186" y="-20"/>
      <point x="102" y="25"/>
      <point x="33" y="102" type="curve"/>
    </contour>
  </outline>
</glyph>
<glyph name="Yucyr" format="2">
  <advance width="1090"/>
  <unicode hex="042E"/>
  <anchor x="545" y="719" name="top"/>
  <outline>
    <contour>
      <point x="248" y="300" type="line"/>
      <point x="388" y="300" type="line"/>
      <point x="388" y="440" type="line"/>
      <point x="248" y="440" type="line"/>
    </contour>
    <contour>
      <point x="693.983" y="124" type="curve" smooth="yes"/>
      <point x="585.251" y="124"/>
      <point x="521" y="210.847"/>
      <point x="521" y="352.961" type="curve" smooth="yes"/>
      <point x="521" y="496.061"/>
      <point x="581.297" y="576"/>
      <point x="690.029" y="576" type="curve" smooth="yes"/>
      <point x="800.738" y="576"/>
      <point x="864" y="491.127"/>
      <point x="864" y="346.052" type="curve" smooth="yes"/>
      <point x="864" y="202.952"/>
      <point x="803.703" y="124"/>
    </contour>
    <contour>
      <point x="692" y="-20" type="curve" smooth="yes"/>
      <point x="909" y="-20"/>
      <point x="1057" y="125"/>
      <point x="1057" y="350" type="curve" smooth="yes"/>
      <point x="1057" y="568"/>
      <point x="913" y="720"/>
      <point x="693" y="720" type="curve" smooth="yes"/>
      <point x="473" y="720"/>
      <point x="328" y="569"/>
      <point x="328" y="350" type="curve" smooth="yes"/>
      <point x="328" y="127"/>
      <point x="476" y="-20"/>
    </contour>
    <contour>
      <point x="68" y="0" type="line"/>
      <point x="258" y="0" type="line"/>
      <point x="258" y="700" type="line"/>
      <point x="68" y="700" type="line"/>
    </contour>
  </outline>
</glyph>
<glyph name="kacyr" format="2">
  <advance width="588"/>
  <unicode hex="043A"/>
  <anchor x="288" y="520" name="top"/>
  <anchor x="288" y="-20" name="bottom"/>
  <outline>
    <contour>
      <point x="54" y="0" type="line"/>
      <point x="244" y="0" type="line"/>
      <point x="244" y="500" type="line"/>
      <point x="54" y="500" type="line"/>
    </contour>
    <contour>
      <point x="220" y="199" type="line"/>
      <point x="406" y="199" type="line" smooth="yes"/>
      <point x="486" y="199"/>
      <point x="520" y="255"/>
      <point x="531" y="337" type="curve"/>
      <point x="548" y="500" type="line"/>
      <point x="369" y="500" type="line"/>
      <point x="358" y="391" type="line" smooth="yes"/>
      <point x="352" y="337"/>
      <point x="339" y="332"/>
      <point x="303" y="332" type="curve" smooth="yes"/>
      <point x="220" y="332" type="line"/>
    </contour>
    <contour>
      <point x="391" y="0" type="line"/>
      <point x="586" y="0" type="line"/>
      <point x="478" y="247" type="line"/>
      <point x="289" y="235" type="line"/>
    </contour>
  </outline>
</glyph>
<glyph name="checyr" format="2">
  <advance width="595"/>
  <unicode hex="0447"/>
  <anchor x="298" y="-20" name="bottom"/>
  <anchor x="298" y="520" name="top"/>
  <outline>
    <contour>
      <point x="353" y="0" type="line"/>
      <point x="543" y="0" type="line"/>
      <point x="543" y="500" type="line"/>
      <point x="353" y="500" type="line"/>
      <point x="353" y="365" type="line" smooth="yes"/>
      <point x="353" y="300"/>
      <point x="320" y="274"/>
      <point x="290" y="274" type="curve" smooth="yes"/>
      <point x="257.57" y="274"/>
      <point x="243" y="294.45"/>
      <point x="243" y="340" type="curve" smooth="yes"/>
      <point x="243" y="500" type="line"/>
      <point x="53" y="500" type="line"/>
      <point x="53" y="340" type="line" smooth="yes"/>
      <point x="53" y="212.04"/>
      <point x="121.9" y="141"/>
      <point x="230.81" y="141" type="curve" smooth="yes"/>
      <point x="279.89" y="141"/>
      <point x="323.1" y="155.44"/>
      <point x="353" y="185.61" type="curve"/>
    </contour>
  </outline>
</glyph>
<glyph name="shchacyr" format="2">
  <advance width="954"/>
  <unicode hex="0449"/>
  <outline>
    <contour>
      <point x="53" y="0" type="line"/>
      <point x="755" y="0" type="line" smooth="yes"/>
      <point x="823" y="0"/>
      <point x="808" y="-102"/>
      <point x="808" y="-140" type="curve"/>
      <point x="947" y="-140" type="line"/>
      <point x="947" y="74"/>
      <point x="926" y="131"/>
      <point x="827" y="131" type="curve"/>
      <point x="827" y="500" type="line"/>
      <point x="637" y="500" type="line"/>
      <point x="637" y="130" type="line"/>
      <point x="535" y="130" type="line"/>
      <point x="535" y="500" type="line"/>
      <point x="345" y="500" type="line"/>
      <point x="345" y="130" type="line"/>
      <point x="243" y="130" type="line"/>
      <point x="243" y="500" type="line"/>
      <point x="53" y="500" type="line"/>
    </contour>
  </outline>
</glyph>
<glyph name="emdash" format="2">
  <advance width="914"/>
  <unicode hex="2014"/>
  <outline>
    <contour>
      <point x="50" y="262" type="line"/>
      <point x="864" y="262" type="line"/>
      <point x="864" y="296" type="line"/>
      <point x="50" y="296" type="line"/>
    </contour>
  </outline>
</glyph>
<glyph name="daggerdbl" format="2">
  <advance width="722"/>
  <unicode hex="2021"/>
  <outline>
    <contour>
      <point x="50" y="-34" type="line"/>
      <point x="268" y="-20" type="line"/>
      <point x="259" y="-222" type="line"/>
      <point x="445" y="-222" type="line"/>
      <point x="437" y="-20" type="line"/>
      <point x="650" y="-34" type="line"/>
      <point x="650" y="111" type="line"/>
      <point x="435" y="97" type="line"/>
      <point x="410" y="237" type="line"/>
      <point x="435" y="377" type="line"/>
      <point x="650" y="363" type="line"/>
      <point x="650" y="508" type="line"/>
      <point x="437" y="494" type="line"/>
      <point x="445" y="696" type="line"/>
      <point x="259" y="696" type="line"/>
      <point x="268" y="494" type="line"/>
      <point x="50" y="508" type="line"/>
      <point x="50" y="363" type="line"/>
      <point x="270" y="377" type="line"/>
      <point x="295" y="237" type="line"/>
      <point x="270" y="97" type="line"/>
      <point x="50" y="111" type="line"/>
    </contour>
  </outline>
</glyph>
<glyph name="five.superior" format="2">
  <advance width="420"/>
  <unicode hex="2075"/>
  <outline>
    <contour>
      <point x="31" y="422" type="line"/>
      <point x="79" y="369"/>
      <point x="117" y="339"/>
      <point x="201" y="339" type="curve" smooth="yes"/>
      <point x="327" y="339"/>
      <point x="405" y="407"/>
      <point x="405" y="508" type="curve" smooth="yes"/>
      <point x="405" y="602"/>
      <point x="338" y="662"/>
      <point x="252" y="662" type="curve" smooth="yes"/>
      <point x="225" y="662"/>
      <point x="205" y="656"/>
      <point x="192" y="645" type="curve"/>
      <point x="206" y="736" type="line"/>
      <point x="373" y="736" type="line"/>
      <point x="383" y="831" type="line"/>
      <point x="90" y="831" type="line"/>
      <point x="43" y="518" type="line"/>
      <point x="112" y="553"/>
      <point x="163" y="573"/>
      <point x="205" y="573" type="curve" smooth="yes"/>
      <point x="251" y="573"/>
      <point x="273" y="548"/>
      <point x="273" y="507" type="curve" smooth="yes"/>
      <point x="273" y="465"/>
      <point x="251" y="435"/>
      <point x="200" y="435" type="curve" smooth="yes"/>
      <point x="158" y="435"/>
      <point x="136" y="455"/>
      <point x="103" y="494" type="curve"/>
    </contour>
  </outline>
</glyph>
<glyph name="eight.superior" format="2">
  <advance width="410"/>
  <unicode hex="2078"/>
  <outline>
    <contour>
      <point x="146" y="597" type="curve"/>
      <point x="68" y="584"/>
      <point x="21" y="538"/>
      <point x="21" y="474" type="curve" smooth="yes"/>
      <point x="21" y="393"/>
      <point x="97" y="337"/>
      <point x="206" y="337" type="curve" smooth="yes"/>
      <point x="315" y="337"/>
      <point x="389" y="393"/>
      <point x="389" y="476" type="curve" smooth="yes"/>
      <point x="389" y="540"/>
      <point x="345" y="584"/>
      <point x="268" y="597" type="curve"/>
      <point x="331" y="610"/>
      <point x="370" y="652"/>
      <point x="370" y="708" type="curve" smooth="yes"/>
      <point x="370" y="781"/>
      <point x="305" y="830"/>
      <point x="203" y="830" type="curve" smooth="yes"/>
      <point x="103" y="830"/>
      <point x="40" y="783"/>
      <point x="40" y="710" type="curve" smooth="yes"/>
      <point x="40" y="652"/>
      <point x="81" y="611"/>
    </contour>
    <contour>
      <point x="205" y="431" type="curve" smooth="yes"/>
      <point x="170" y="431"/>
      <point x="146" y="456"/>
      <point x="146" y="492" type="curve" smooth="yes"/>
      <point x="146" y="528"/>
      <point x="169" y="552"/>
      <point x="205" y="552" type="curve" smooth="yes"/>
      <point x="240" y="552"/>
      <point x="264" y="529"/>
      <point x="264" y="494" type="curve" smooth="yes"/>
      <point x="264" y="460"/>
      <point x="242" y="431"/>
    </contour>
    <contour>
      <point x="204" y="646" type="curve" smooth="yes"/>
      <point x="177" y="646"/>
      <point x="165" y="665"/>
      <point x="165" y="688" type="curve" smooth="yes"/>
      <point x="165" y="717"/>
      <point x="183" y="736"/>
      <point x="208" y="736" type="curve" smooth="yes"/>
      <point x="231" y="736"/>
      <point x="245" y="721"/>
      <point x="245" y="693" type="curve" smooth="yes"/>
      <point x="245" y="665"/>
      <point x="230" y="646"/>
    </contour>
  </outline>
</glyph>
<glyph name="hryvnia" format="2">
  <advance width="734"/>
  <unicode hex="20B4"/>
  <outline>
    <contour>
      <point x="21" y="236" type="line"/>
      <point x="112.66" y="236" type="line"/>
      <point x="111.55" y="227.44"/>
      <point x="111" y="218.57"/>
      <point x="111" y="209.38" type="curve" smooth="yes"/>
      <point x="111" y="61.13"/>
      <point x="208" y="-20"/>
      <point x="370" y="-20" type="curve" smooth="yes"/>
      <point x="505" y="-20"/>
      <point x="596" y="37"/>
      <point x="648" y="101" type="curve"/>
      <point x="542" y="207" type="line"/>
      <point x="492.2" y="150.34"/>
      <point x="445.4" y="120"/>
      <point x="386.64" y="120" type="curve" smooth="yes"/>
      <point x="330.87" y="120"/>
      <point x="301" y="147.04"/>
      <point x="301" y="193.12" type="curve" smooth="yes"/>
      <point x="301" y="212.24"/>
      <point x="306.3" y="225.62"/>
      <point x="318.05" y="236" type="curve"/>
      <point x="713" y="236" type="line"/>
      <point x="713" y="312" type="line"/>
      <point x="21" y="312" type="line"/>
    </contour>
    <contour>
      <point x="21" y="374" type="line"/>
      <point x="713" y="374" type="line"/>
      <point x="713" y="450" type="line"/>
      <point x="629.95" y="450" type="line"/>
      <point x="632.65" y="463.53"/>
      <point x="634" y="477.74"/>
      <point x="634" y="492.62" type="curve" smooth="yes"/>
      <point x="634" y="632.85"/>
      <point x="539" y="720"/>
      <point x="383" y="720" type="curve" smooth="yes"/>
      <point x="257" y="720"/>
      <point x="165" y="663"/>
      <point x="113" y="599" type="curve"/>
      <point x="219" y="493" type="line"/>
      <point x="269" y="549.65"/>
      <point x="316" y="580"/>
      <point x="365" y="580" type="curve" smooth="yes"/>
      <point x="417" y="580"/>
      <point x="444" y="546.94"/>
      <point x="444" y="500.86" type="curve" smooth="yes"/>
      <point x="444" y="479.28"/>
      <point x="438.11" y="463.39"/>
      <point x="422.3" y="450" type="curve"/>
      <point x="21" y="450" type="line"/>
    </contour>
  </outline>
</glyph>
<glyph name="ruble" format="2">
  <advance width="720"/>
  <unicode hex="20BD"/>
  <outline>
    <contour>
      <point x="145" y="0" type="line"/>
      <point x="335" y="0" type="line"/>
      <point x="335" y="560" type="line"/>
      <point x="382" y="560" type="line" smooth="yes"/>
      <point x="456" y="560"/>
      <point x="491" y="533"/>
      <point x="491" y="457" type="curve" smooth="yes"/>
      <point x="491" y="383"/>
      <point x="457" y="352"/>
      <point x="382" y="352" type="curve" smooth="yes"/>
      <point x="45" y="352" type="line"/>
      <point x="45" y="212" type="line"/>
      <point x="410" y="212" type="line" smooth="yes"/>
      <point x="574" y="212"/>
      <point x="681" y="310"/>
      <point x="681" y="459" type="curve" smooth="yes"/>
      <point x="681" y="606"/>
      <point x="576" y="700"/>
      <point x="410" y="700" type="curve" smooth="yes"/>
      <point x="145" y="700" type="line"/>
    </contour>
    <contour>
      <point x="45" y="82" type="line"/>
      <point x="619" y="82" type="line"/>
      <point x="619" y="162" type="line"/>
      <point x="45" y="162" type="line"/>
    </contour>
  </outline>
</glyph>
<glyph name="summation" format="2">
  <advance width="662"/>
  <unicode hex="2211"/>
  <outline>
    <contour>
      <point x="30" y="-126" type="line"/>
      <point x="621" y="-126" type="line"/>
      <point x="621" y="14" type="line"/>
      <point x="299" y="14" type="line"/>
      <point x="567" y="288" type="line"/>
      <point x="299" y="560" type="line"/>
      <point x="621" y="560" type="line"/>
      <point x="621" y="700" type="line"/>
      <point x="30" y="700" type="line"/>
      <point x="30" y="581" type="line"/>
      <point x="315" y="289" type="line"/>
      <point x="30" y="-5" type="line"/>
    </contour>
  </outline>
</glyph>
<glyph name="notequal" format="2">
  <advance width="523"/>
  <unicode hex="2260"/>
  <outline>
    <contour>
      <point x="135" y="44" type="line"/>
      <point x="183" y="44" type="line"/>
      <point x="230" y="140" type="line"/>
      <point x="469" y="140" type="line"/>
      <point x="469" y="160" type="line"/>
      <point x="239" y="160" type="line"/>
      <point x="341" y="370" type="line"/>
      <point x="469" y="370" type="line"/>
      <point x="469" y="390" type="line"/>
      <point x="351" y="390" type="line"/>
      <point x="388" y="466" type="line"/>
      <point x="340" y="466" type="line"/>
      <point x="303" y="390" type="line"/>
      <point x="55" y="390" type="line"/>
      <point x="55" y="370" type="line"/>
      <point x="293" y="370" type="line"/>
      <point x="191" y="160" type="line"/>
      <point x="55" y="160" type="line"/>
      <point x="55" y="140" type="line"/>
      <point x="182" y="140" type="line"/>
    </contour>
  </outline>
</glyph>
<glyph name="f_f" format="2">
  <advance width="800"/>
  <unicode hex="FB00"/>
  <outline>
    <contour>
      <point x="89" y="0" type="line"/>
      <point x="279" y="0" type="line"/>
      <point x="279" y="370" type="line"/>
      <point x="405" y="370" type="line"/>
      <point x="405" y="500" type="line"/>
      <point x="279" y="500" type="line"/>
      <point x="279" y="541" type="line" smooth="yes"/>
      <point x="279" y="578"/>
      <point x="295" y="612"/>
      <point x="338" y="612" type="curve" smooth="yes"/>
      <point x="349" y="612"/>
      <point x="366" y="610"/>
      <point x="383" y="604" type="curve"/>
      <point x="421" y="728" type="line"/>
      <point x="364" y="745.739"/>
      <point x="326" y="752"/>
      <point x="287" y="752" type="curve" smooth="yes"/>
      <point x="158" y="752"/>
      <point x="89" y="684.733"/>
      <point x="89" y="568.271" type="curve" smooth="yes"/>
      <point x="89" y="500" type="line"/>
      <point x="12" y="500" type="line"/>
      <point x="12" y="370" type="line"/>
      <point x="89" y="370" type="line"/>
    </contour>
    <contour>
      <point x="466" y="0" type="line"/>
      <point x="656" y="0" type="line"/>
      <point x="656" y="370" type="line"/>
      <point x="782" y="370" type="line"/>
      <point x="782" y="500" type="line"/>
      <point x="656" y="500" type="line"/>
      <point x="656" y="541" type="line" smooth="yes"/>
      <point x="656" y="578"/>
      <point x="672" y="612"/>
      <point x="715" y="612" type="curve" smooth="yes"/>
      <point x="726" y="612"/>
      <point x="743" y="610"/>
      <point x="760" y="604" type="curve"/>
      <point x="798" y="728" type="line"/>
      <point x="741" y="745.739"/>
      <point x="703" y="752"/>
      <point x="664" y="752" type="curve" smooth="yes"/>
      <point x="535" y="752"/>
      <point x="466" y="684.733"/>
      <point x="466" y="568.271" type="curve" smooth="yes"/>
      <point x="466" y="500" type="line"/>
      <point x="389" y="500" type="line"/>
      <point x="389" y="370" type="line"/>
      <point x="466" y="370" type="line"/>
    </contour>
  </outline>
</glyph>
<glyph name="C.ss09" format="2">
  <advance width="773"/>
  <anchor x="407" y="-19" name="bottom"/>
  <anchor x="387" y="719" name="top"/>
  <outline>
    <contour>
      <point x="549" y="261" type="line"/>
      <point x="527" y="170"/>
      <point x="474" y="120"/>
      <point x="397" y="120" type="curve" smooth="yes"/>
      <point x="293" y="120"/>
      <point x="224" y="215.415"/>
      <point x="224" y="356.026" type="curve" smooth="yes"/>
      <point x="224" y="496.638"/>
      <point x="293" y="580"/>
      <point x="403" y="580" type="curve" smooth="yes"/>
      <point x="470" y="580"/>
      <point x="519" y="546"/>
      <point x="539" y="485" type="curve"/>
      <point x="730" y="485" type="line"/>
      <point x="686" y="623"/>
      <point x="581" y="720"/>
      <point x="400" y="720" type="curve" smooth="yes"/>
      <point x="183" y="720"/>
      <point x="33" y="565"/>
      <point x="33" y="357" type="curve" smooth="yes"/>
      <point x="33" y="146"/>
      <point x="187" y="-20"/>
      <point x="402" y="-20" type="curve" smooth="yes"/>
      <point x="588" y="-20"/>
      <point x="708" y="103"/>
      <point x="740" y="261" type="curve"/>
    </contour>
  </outline>
</glyph>
<glyph name="Ccedilla.ss10" format="2">
  <advance width="735"/>
  <anchor x="387" y="719" name="top"/>
  <anchor x="387" y="-217" name="bottom"/>
  <outline>
    <contour>
      <point x="657" y="286" type="line"/>
      <point x="585" y="165.273"/>
      <point x="505" y="120"/>
      <point x="418" y="120" type="curve" smooth="yes"/>
      <point x="293.2" y="120"/>
      <point x="223" y="214.41"/>
      <point x="223" y="356.026" type="curve" smooth="yes"/>
      <point x="223" y="490.611"/>
      <point x="285" y="580"/>
      <point x="409" y="580" type="curve" smooth="yes"/>
      <point x="498" y="580"/>
      <point x="576" y="534.727"/>
      <point x="648" y="414" type="curve"/>
      <point x="693" y="578" type="line"/>
      <point x="628" y="664"/>
      <point x="524" y="720"/>
      <point x="394" y="720" type="curve" smooth="yes"/>
      <point x="181" y="720"/>
      <point x="33" y="570"/>
      <point x="33" y="357" type="curve" smooth="yes"/>
      <point x="33" y="130.8"/>
      <point x="181" y="-20"/>
      <point x="403" y="-20" type="curve" smooth="yes"/>
      <point x="531" y="-20"/>
      <point x="637" y="36"/>
      <point x="702" y="122" type="curve"/>
    </contour>
    <contour>
      <point x="255" y="-204" type="line"/>
      <point x="277" y="-210"/>
      <point x="310" y="-217"/>
      <point x="363" y="-217" type="curve" smooth="yes"/>
      <point x="466" y="-217"/>
      <point x="515" y="-190"/>
      <point x="515" y="-133" type="curve" smooth="yes"/>
      <point x="515" y="-86"/>
      <point x="482" y="-63"/>
      <point x="414" y="-63" type="curve"/>
      <point x="461.423" y="21.4105" type="line"/>
      <point x="359.423" y="21.4105" type="line"/>
      <point x="291" y="-108" type="line"/>
      <point x="307" y="-106"/>
      <point x="332" y="-104"/>
      <point x="349" y="-104" type="curve" smooth="yes"/>
      <point x="379" y="-104"/>
      <point x="395" y="-110"/>
      <point x="395" y="-132" type="curve" smooth="yes"/>
      <point x="395" y="-150"/>
      <point x="384" y="-163"/>
      <point x="347" y="-163" type="curve" smooth="yes"/>
      <point x="326" y="-163"/>
      <point x="297" y="-159"/>
      <point x="281" y="-153" type="curve"/>
    </contour>
  </outline>
</glyph>
<glyph name="Decyr.ss08" format="2">
  <advance width="863"/>
  <outline>
    <contour>
      <point x="111" y="83" type="line"/>
      <point x="315" y="83" type="line"/>
      <point x="490" y="700" type="line"/>
      <point x="325" y="700" type="line"/>
    </contour>
    <contour>
      <point x="548" y="83" type="line"/>
      <point x="752" y="83" type="line"/>
      <point x="538" y="700" type="line"/>
      <point x="373" y="700" type="line"/>
    </contour>
    <contour>
      <point x="165" y="-140" type="line"/>
      <point x="165" y="-37"/>
      <point x="162" y="0"/>
      <point x="221" y="0" type="curve" smooth="yes"/>
      <point x="633" y="0" type="line" smooth="yes"/>
      <point x="704" y="0"/>
      <point x="696" y="-32"/>
      <point x="696" y="-140" type="curve"/>
      <point x="842" y="-140" type="line"/>
      <point x="842" y="112"/>
      <point x="807" y="140"/>
      <point x="710" y="140" type="curve" smooth="yes"/>
      <point x="158" y="140" type="line" smooth="yes"/>
      <point x="62" y="140"/>
      <point x="19" y="112"/>
      <point x="19" y="-140" type="curve"/>
    </contour>
  </outline>
</glyph>
<glyph name="Ereversedcyr.ss10" format="2">
  <advance width="735"/>
  <anchor x="357" y="719" name="top"/>
  <outline>
    <contour>
      <point x="33" y="122" type="line"/>
      <point x="98" y="36"/>
      <point x="204" y="-20"/>
      <point x="332" y="-20" type="curve" smooth="yes"/>
      <point x="554" y="-20"/>
      <point x="702" y="130.8"/>
      <point x="702" y="357" type="curve" smooth="yes"/>
      <point x="702" y="570"/>
      <point x="554" y="720"/>
      <point x="341" y="720" type="curve" smooth="yes"/>
      <point x="211" y="720"/>
      <point x="107" y="664"/>
      <point x="42" y="578" type="curve"/>
      <point x="87" y="414" type="line"/>
      <point x="159" y="534.727"/>
      <point x="237" y="580"/>
      <point x="326" y="580" type="curve" smooth="yes"/>
      <point x="450" y="580"/>
      <point x="512" y="490.611"/>
      <point x="512" y="356.026" type="curve" smooth="yes"/>
      <point x="512" y="214.41"/>
      <point x="441.8" y="120"/>
      <point x="317" y="120" type="curve" smooth="yes"/>
      <point x="230" y="120"/>
      <point x="150" y="165.273"/>
      <point x="78" y="286" type="curve"/>
    </contour>
    <contour>
      <point x="204" y="290" type="line"/>
      <point x="559" y="290" type="line"/>
      <point x="559" y="430" type="line"/>
      <point x="204" y="430" type="line"/>
    </contour>
  </outline>
</glyph>
<glyph name="Euro.ss09" format="2">
  <advance width="730"/>
  <outline>
    <contour>
      <point x="10" y="364" type="line"/>
      <point x="481" y="364" type="line"/>
      <point x="495" y="434" type="line"/>
      <point x="281" y="434" type="line"/>
      <point x="286" y="534"/>
      <point x="334" y="579"/>
      <point x="399" y="579" type="curve" smooth="yes"/>
      <point x="455" y="579"/>
      <point x="495" y="546"/>
      <point x="516" y="485" type="curve"/>
      <point x="697" y="485" type="line"/>
      <point x="657" y="620"/>
      <point x="560" y="720"/>
      <point x="400" y="720" type="curve" smooth="yes"/>
      <point x="229" y="720"/>
      <point x="103" y="604"/>
      <point x="89" y="434" type="curve"/>
      <point x="24" y="434" type="line"/>
    </contour>
    <contour>
      <point x="10" y="270" type="line"/>
      <point x="88" y="270" type="line"/>
      <point x="102" y="100"/>
      <point x="230" y="-20"/>
      <point x="397" y="-20" type="curve" smooth="yes"/>
      <point x="569" y="-20"/>
      <point x="668" y="106"/>
      <point x="697" y="261" type="curve"/>
      <point x="516" y="261" type="line"/>
      <point x="509" y="170"/>
      <point x="459" y="122"/>
      <point x="398" y="122" type="curve" smooth="yes"/>
      <point x="334" y="122"/>
      <point x="286" y="161"/>
      <point x="280" y="270" type="curve"/>
      <point x="455" y="270" type="line"/>
      <point x="469" y="340" type="line"/>
      <point x="24" y="340" type="line"/>
    </contour>
  </outline>
</glyph>
<glyph name="Germandbls.ss10" format="2">
  <advance width="723"/>
  <outline>
    <contour>
      <point x="59" y="0" type="line"/>
      <point x="249" y="0" type="line"/>
      <point x="249" y="434" type="line" smooth="yes"/>
      <point x="249" y="527"/>
      <point x="265" y="579"/>
      <point x="340" y="579" type="curve" smooth="yes"/>
      <point x="367" y="579"/>
      <point x="388" y="575"/>
      <point x="411" y="564" type="curve"/>
      <point x="348" y="508" type="line" smooth="yes"/>
      <point x="295" y="460"/>
      <point x="279" y="417"/>
      <point x="279" y="371" type="curve" smooth="yes"/>
      <point x="279" y="316"/>
      <point x="312" y="277"/>
      <point x="385" y="250" type="curve" smooth="yes"/>
      <point x="463" y="220"/>
      <point x="495" y="194"/>
      <point x="495" y="162" type="curve" smooth="yes"/>
      <point x="495" y="140"/>
      <point x="479" y="120"/>
      <point x="453" y="120" type="curve" smooth="yes"/>
      <point x="385" y="120"/>
      <point x="357" y="171"/>
      <point x="311" y="250" type="curve"/>
      <point x="267" y="90" type="line"/>
      <point x="307" y="27"/>
      <point x="374" y="-20"/>
      <point x="471" y="-20" type="curve" smooth="yes"/>
      <point x="635" y="-20"/>
      <point x="686" y="82"/>
      <point x="686" y="168" type="curve" smooth="yes"/>
      <point x="686" y="247"/>
      <point x="636" y="304"/>
      <point x="522" y="345" type="curve" smooth="yes"/>
      <point x="478" y="361"/>
      <point x="437" y="372"/>
      <point x="437" y="420" type="curve" smooth="yes"/>
      <point x="437" y="468"/>
      <point x="469" y="494"/>
      <point x="490" y="512" type="curve" smooth="yes"/>
      <point x="635" y="635" type="line"/>
      <point x="585" y="676"/>
      <point x="493" y="720"/>
      <point x="367" y="720" type="curve" smooth="yes"/>
      <point x="153" y="720"/>
      <point x="59" y="631"/>
      <point x="59" y="499" type="curve" smooth="yes"/>
    </contour>
  </outline>
</glyph>
<glyph name="Germandbls.ss12" format="2">
  <advance width="693"/>
  <outline>
    <contour>
      <point x="59" y="0" type="line"/>
      <point x="249" y="0" type="line"/>
      <point x="249" y="446" type="line" smooth="yes"/>
      <point x="249" y="534"/>
      <point x="281" y="579"/>
      <point x="351" y="579" type="curve" smooth="yes"/>
      <point x="374" y="579"/>
      <point x="388" y="574"/>
      <point x="406" y="566" type="curve"/>
      <point x="349" y="510" type="line" smooth="yes"/>
      <point x="318" y="479"/>
      <point x="287" y="444"/>
      <point x="287" y="390" type="curve" smooth="yes"/>
      <point x="287" y="312.186"/>
      <point x="333.301" y="277.568"/>
      <point x="378.806" y="250.496" type="curve" smooth="yes"/>
      <point x="422.775" y="224.339"/>
      <point x="466" y="205.227"/>
      <point x="466" y="161" type="curve" smooth="yes"/>
      <point x="466" y="138"/>
      <point x="454" y="120"/>
      <point x="424" y="120" type="curve" smooth="yes"/>
      <point x="381" y="120"/>
      <point x="331" y="155"/>
      <point x="288" y="204" type="curve"/>
      <point x="275" y="80" type="line"/>
      <point x="326" y="12"/>
      <point x="384" y="-20"/>
      <point x="466" y="-20" type="curve" smooth="yes"/>
      <point x="611" y="-20"/>
      <point x="656" y="81"/>
      <point x="656" y="151" type="curve" smooth="yes"/>
      <point x="656" y="237.954"/>
      <point x="587.455" y="275.81"/>
      <point x="527.771" y="311.013" type="curve" smooth="yes"/>
      <point x="481.752" y="338.156"/>
      <point x="441" y="363.722"/>
      <point x="441" y="409" type="curve" smooth="yes"/>
      <point x="441" y="445"/>
      <point x="467" y="476"/>
      <point x="485" y="496" type="curve" smooth="yes"/>
      <point x="616" y="636" type="line"/>
      <point x="562" y="677"/>
      <point x="463" y="720"/>
      <point x="343" y="720" type="curve" smooth="yes"/>
      <point x="153" y="720"/>
      <point x="59" y="612"/>
      <point x="59" y="489" type="curve" smooth="yes"/>
    </contour>
  </outline>
</glyph>
<glyph name="J.ss09" format="2">
  <advance width="584"/>
  <anchor x="279" y="-20" name="bottom"/>
  <anchor x="430" y="719" name="top"/>
  <outline>
    <contour>
      <point x="30" y="195" type="line"/>
      <point x="55" y="55"/>
      <point x="131" y="-20"/>
      <point x="280" y="-20" type="curve" smooth="yes"/>
      <point x="447" y="-20"/>
      <point x="524" y="75"/>
      <point x="524" y="252" type="curve" smooth="yes"/>
      <point x="524" y="700" type="line"/>
      <point x="334" y="700" type="line"/>
      <point x="334" y="251.226" type="line" smooth="yes"/>
      <point x="334" y="147.047"/>
      <point x="313" y="120"/>
      <point x="278" y="120" type="curve" smooth="yes"/>
      <point x="243" y="120"/>
      <point x="227" y="147"/>
      <point x="220" y="195" type="curve"/>
    </contour>
  </outline>
</glyph>
<glyph name="J.ss10" format="2">
  <advance width="578"/>
  <anchor x="428" y="719" name="top"/>
  <anchor x="279" y="-20" name="bottom"/>
  <outline>
    <contour>
      <point x="9" y="122" type="line"/>
      <point x="64" y="41"/>
      <point x="151" y="-20"/>
      <point x="273" y="-20" type="curve" smooth="yes"/>
      <point x="431" y="-20"/>
      <point x="518" y="82"/>
      <point x="518" y="252" type="curve" smooth="yes"/>
      <point x="518" y="700" type="line"/>
      <point x="328" y="700" type="line"/>
      <point x="328" y="253.23" type="line" smooth="yes"/>
      <point x="328" y="153.057"/>
      <point x="307" y="120"/>
      <point x="245" y="120" type="curve" smooth="yes"/>
      <point x="169" y="120"/>
      <point x="115" y="172.315"/>
      <point x="54" y="286" type="curve"/>
    </contour>
  </outline>
</glyph>
<glyph name="S.ss09" format="2">
  <advance width="590"/>
  <anchor x="279" y="719" name="top"/>
  <anchor x="294" y="-20" name="bottom"/>
  <outline>
    <contour>
      <point x="26" y="198" type="line"/>
      <point x="48.0838" y="73"/>
      <point x="128.389" y="-20"/>
      <point x="296.025" y="-20" type="curve" smooth="yes"/>
      <point x="460.65" y="-20"/>
      <point x="553" y="70.1503"/>
      <point x="553" y="202.371" type="curve" smooth="yes"/>
      <point x="553" y="343.41"/>
      <point x="441.623" y="383.737"/>
      <point x="348.475" y="417.464" type="curve" smooth="yes"/>
      <point x="281.53" y="441.703"/>
      <point x="224" y="462.534"/>
      <point x="224" y="514.891" type="curve" smooth="yes"/>
      <point x="224" y="553.957"/>
      <point x="245" y="580"/>
      <point x="281" y="580" type="curve" smooth="yes"/>
      <point x="319" y="580"/>
      <point x="337" y="550"/>
      <point x="347" y="502" type="curve"/>
      <point x="538" y="502" type="line"/>
      <point x="516" y="627"/>
      <point x="439" y="720"/>
      <point x="279" y="720" type="curve" smooth="yes"/>
      <point x="121" y="720"/>
      <point x="34" y="629.85"/>
      <point x="34" y="507.646" type="curve" smooth="yes"/>
      <point x="34" y="359.538"/>
      <point x="147.268" y="317.299"/>
      <point x="240.883" y="282.389" type="curve" smooth="yes"/>
      <point x="306.816" y="257.802"/>
      <point x="363" y="236.851"/>
      <point x="363" y="185.109" type="curve" smooth="yes"/>
      <point x="363" y="146.043"/>
      <point x="336.641" y="120"/>
      <point x="294.062" y="120" type="curve" smooth="yes"/>
      <point x="248.441" y="120"/>
      <point x="227.152" y="150"/>
      <point x="216" y="198" type="curve"/>
    </contour>
  </outline>
</glyph>
<glyph name="S.ss10" format="2">
  <advance width="580"/>
  <anchor x="275" y="719" name="top"/>
  <anchor x="290" y="-20" name="bottom"/>
  <outline>
    <contour>
      <point x="26" y="122" type="line"/>
      <point x="81.1066" y="38"/>
      <point x="167.273" y="-20"/>
      <point x="290.512" y="-20" type="curve" smooth="yes"/>
      <point x="443.808" y="-20"/>
      <point x="543" y="71.1519"/>
      <point x="543" y="214.391" type="curve" smooth="yes"/>
      <point x="543" y="347.008"/>
      <point x="437.629" y="384.035"/>
      <point x="348.197" y="415.461" type="curve" smooth="yes"/>
      <point x="282.267" y="438.629"/>
      <point x="225" y="458.752"/>
      <point x="225" y="511.886" type="curve" smooth="yes"/>
      <point x="225" y="546.945"/>
      <point x="249" y="580"/>
      <point x="305" y="580" type="curve" smooth="yes"/>
      <point x="373" y="580"/>
      <point x="423" y="530.703"/>
      <point x="487" y="414" type="curve"/>
      <point x="532" y="578" type="line"/>
      <point x="478" y="662"/>
      <point x="392" y="720"/>
      <point x="272" y="720" type="curve" smooth="yes"/>
      <point x="127" y="720"/>
      <point x="35" y="634.858"/>
      <point x="35" y="488.614" type="curve" smooth="yes"/>
      <point x="35" y="346.637"/>
      <point x="142.648" y="307.754"/>
      <point x="232.877" y="275.162" type="curve" smooth="yes"/>
      <point x="297.973" y="251.649"/>
      <point x="353" y="231.411"/>
      <point x="353" y="178.097" type="curve" smooth="yes"/>
      <point x="353" y="143.038"/>
      <point x="328.915" y="120"/>
      <point x="273.719" y="120" type="curve" smooth="yes"/>
      <point x="193.434" y="120"/>
      <point x="137.235" y="169.297"/>
      <point x="71" y="286" type="curve"/>
    </contour>
  </outline>
</glyph>
<glyph name="Scedilla.ss09" format="2">
  <advance width="590"/>
  <anchor x="279" y="719" name="top"/>
  <anchor x="274" y="-218" name="bottom"/>
  <outline>
    <contour>
      <point x="26" y="198" type="line"/>
      <point x="48.0838" y="73"/>
      <point x="128.389" y="-20"/>
      <point x="296.025" y="-20" type="curve" smooth="yes"/>
      <point x="460.65" y="-20"/>
      <point x="553" y="70.1503"/>
      <point x="553" y="202.371" type="curve" smooth="yes"/>
      <point x="553" y="343.41"/>
      <point x="441.623" y="383.737"/>
      <point x="348.475" y="417.464" type="curve" smooth="yes"/>
      <point x="281.53" y="441.703"/>
      <point x="224" y="462.534"/>
      <point x="224" y="514.891" type="curve" smooth="yes"/>
      <point x="224" y="553.957"/>
      <point x="245" y="580"/>
      <point x="281" y="580" type="curve" smooth="yes"/>
      <point x="319" y="580"/>
      <point x="337" y="550"/>
      <point x="347" y="502" type="curve"/>
      <point x="538" y="502" type="line"/>
      <point x="516" y="627"/>
      <point x="439" y="720"/>
      <point x="279" y="720" type="curve" smooth="yes"/>
      <point x="121" y="720"/>
      <point x="34" y="629.85"/>
      <point x="34" y="507.646" type="curve" smooth="yes"/>
      <point x="34" y="359.538"/>
      <point x="147.268" y="317.299"/>
      <point x="240.883" y="282.389" type="curve" smooth="yes"/>
      <point x="306.816" y="257.802"/>
      <point x="363" y="236.851"/>
      <point x="363" y="185.109" type="curve" smooth="yes"/>
      <point x="363" y="146.043"/>
      <point x="336.641" y="120"/>
      <point x="294.062" y="120" type="curve" smooth="yes"/>
      <point x="248.441" y="120"/>
      <point x="227.152" y="150"/>
      <point x="216" y="198" type="curve"/>
    </contour>
    <contour>
      <point x="142" y="-205" type="line"/>
      <point x="164" y="-211"/>
      <point x="197" y="-218"/>
      <point x="250" y="-218" type="curve" smooth="yes"/>
      <point x="353" y="-218"/>
      <point x="402" y="-191"/>
      <point x="402" y="-134" type="curve" smooth="yes"/>
      <point x="402" y="-87"/>
      <point x="369" y="-64"/>
      <point x="301" y="-64" type="curve"/>
      <point x="348.423" y="20.4105" type="line"/>
      <point x="246.423" y="20.4105" type="line"/>
      <point x="178" y="-109" type="line"/>
      <point x="194" y="-107"/>
      <point x="219" y="-105"/>
      <point x="236" y="-105" type="curve" smooth="yes"/>
      <point x="266" y="-105"/>
      <point x="282" y="-111"/>
      <point x="282" y="-133" type="curve" smooth="yes"/>
      <point x="282" y="-151"/>
      <point x="271" y="-164"/>
      <point x="234" y="-164" type="curve" smooth="yes"/>
      <point x="213" y="-164"/>
      <point x="184" y="-160"/>
      <point x="168" y="-154" type="curve"/>
    </contour>
  </outline>
</glyph>
<glyph name="a.ss02" format="2">
  <advance width="580"/>
  <anchor x="290" y="520" name="top"/>
  <anchor x="280" y="-20" name="bottom"/>
  <anchor x="514" y="-3" name="ogonek"/>
  <outline>
    <contour>
      <point x="330.9" y="154.94" type="curve"/>
      <point x="320.22" y="170.79"/>
      <point x="302.41" y="182"/>
      <point x="279" y="182" type="curve" smooth="yes"/>
      <point x="255" y="182"/>
      <point x="239" y="171"/>
      <point x="239" y="148" type="curve" smooth="yes"/>
      <point x="239" y="126"/>
      <point x="253" y="114"/>
      <point x="281" y="114" type="curve" smooth="yes"/>
      <point x="311.44" y="114"/>
      <point x="325.88" y="128.34"/>
    </contour>
    <contour>
      <point x="331" y="0" type="line"/>
      <point x="331" y="63.22" type="line"/>
      <point x="306.7" y="10.06"/>
      <point x="262.55" y="-20"/>
      <point x="204" y="-20" type="curve" smooth="yes"/>
      <point x="115" y="-20"/>
      <point x="49" y="49"/>
      <point x="49" y="146" type="curve" smooth="yes"/>
      <point x="49" y="243"/>
      <point x="115" y="312"/>
      <point x="206" y="312" type="curve" smooth="yes"/>
      <point x="262.97" y="312"/>
      <point x="306.52" y="285.2"/>
      <point x="331" y="237.79" type="curve"/>
      <point x="331" y="325" type="line" smooth="yes"/>
      <point x="331" y="374"/>
      <point x="306" y="390"/>
      <point x="265" y="390" type="curve" smooth="yes"/>
      <point x="220" y="390"/>
      <point x="172" y="371"/>
      <point x="146" y="342" type="curve"/>
      <point x="58" y="430" type="line"/>
      <point x="114" y="486"/>
      <point x="184" y="520"/>
      <point x="288" y="520" type="curve" smooth="yes"/>
      <point x="431" y="520"/>
      <point x="521" y="455"/>
      <point x="521" y="352" type="curve" smooth="yes"/>
      <point x="521" y="0" type="line"/>
    </contour>
  </outline>
</glyph>
<glyph name="a.ss12" format="2">
  <advance width="544"/>
  <anchor x="272" y="520" name="top"/>
  <anchor x="272" y="-20" name="bottom"/>
  <anchor x="491" y="-3" name="ogonek"/>
  <outline>
    <contour>
      <point x="308" y="0" type="line"/>
      <point x="308" y="204" type="line"/>
      <point x="300.146" y="188"/>
      <point x="284.439" y="181"/>
      <point x="264.244" y="181" type="curve" smooth="yes"/>
      <point x="235.073" y="181"/>
      <point x="216" y="166"/>
      <point x="216" y="146" type="curve" smooth="yes"/>
      <point x="216" y="126.2"/>
      <point x="231.707" y="113"/>
      <point x="255.268" y="113" type="curve" smooth="yes"/>
      <point x="286.907" y="113"/>
      <point x="308" y="144.6"/>
      <point x="308" y="192" type="curve"/>
      <point x="331" y="122" type="line"/>
      <point x="303.577" y="24"/>
      <point x="269" y="-20"/>
      <point x="189.354" y="-20" type="curve" smooth="yes"/>
      <point x="92.4" y="-20"/>
      <point x="26" y="45.2"/>
      <point x="26" y="143" type="curve" smooth="yes"/>
      <point x="26" y="239"/>
      <point x="96" y="296"/>
      <point x="219.842" y="296" type="curve" smooth="yes"/>
      <point x="283.861" y="296"/>
      <point x="308" y="311"/>
      <point x="308" y="342" type="curve" smooth="yes"/>
      <point x="308" y="373"/>
      <point x="284.24" y="390"/>
      <point x="232.4" y="390" type="curve" smooth="yes"/>
      <point x="173" y="390"/>
      <point x="120" y="367"/>
      <point x="51" y="315" type="curve"/>
      <point x="40" y="431" type="line"/>
      <point x="89" y="485"/>
      <point x="166.905" y="520"/>
      <point x="265.311" y="520" type="curve" smooth="yes"/>
      <point x="411.895" y="520"/>
      <point x="498" y="443"/>
      <point x="498" y="350" type="curve" smooth="yes"/>
      <point x="498" y="0" type="line"/>
    </contour>
  </outline>
</glyph>
<glyph name="ae.ss02" format="2">
  <advance width="904"/>
  <anchor x="465" y="500" name="top"/>
  <anchor x="465" y="-0" name="bottom"/>
  <outline>
    <contour>
      <point x="58" y="430" type="line"/>
      <point x="114" y="486"/>
      <point x="184" y="520"/>
      <point x="288" y="520" type="curve" smooth="yes"/>
      <point x="355.48" y="520"/>
      <point x="411.15" y="505.51"/>
      <point x="451.14" y="479.4" type="curve"/>
      <point x="494.4" y="505.86"/>
      <point x="547.54" y="520"/>
      <point x="607" y="520" type="curve" smooth="yes"/>
      <point x="794.46" y="520"/>
      <point x="899.47" y="390.7"/>
      <point x="878" y="209" type="curve"/>
      <point x="534" y="209" type="line"/>
      <point x="534" y="149.66"/>
      <point x="572.77" y="120"/>
      <point x="639.908" y="120" type="curve" smooth="yes"/>
      <point x="690.971" y="120"/>
      <point x="735.414" y="135.04"/>
      <point x="760" y="158" type="curve"/>
      <point x="848" y="70" type="line"/>
      <point x="793.751" y="14"/>
      <point x="726.909" y="-20"/>
      <point x="630.036" y="-20" type="curve" smooth="yes"/>
      <point x="527.588" y="-20"/>
      <point x="445.295" y="18.1992"/>
      <point x="395.541" y="87.1246" type="curve"/>
      <point x="357.017" y="11.2197"/>
      <point x="302.644" y="-20"/>
      <point x="228.353" y="-20" type="curve" smooth="yes"/>
      <point x="117.908" y="-20"/>
      <point x="49" y="49"/>
      <point x="49" y="146" type="curve" smooth="yes"/>
      <point x="49" y="243"/>
      <point x="118.332" y="312"/>
      <point x="213.926" y="312" type="curve" smooth="yes"/>
      <point x="273.772" y="312"/>
      <point x="319.52" y="285.2"/>
      <point x="344" y="237.79" type="curve"/>
      <point x="344" y="325" type="line" smooth="yes"/>
      <point x="344" y="374"/>
      <point x="317.243" y="390"/>
      <point x="273.362" y="390" type="curve" smooth="yes"/>
      <point x="225.2" y="390"/>
      <point x="173.827" y="371"/>
      <point x="146" y="342" type="curve"/>
    </contour>
    <contour>
      <point x="691" y="329" type="line"/>
      <point x="687.313" y="367"/>
      <point x="661.506" y="390"/>
      <point x="615.422" y="390" type="curve" smooth="yes"/>
      <point x="569.337" y="390"/>
      <point x="538" y="367"/>
      <point x="534" y="329" type="curve"/>
    </contour>
    <contour>
      <point x="343.9" y="154.94" type="curve"/>
      <point x="333.22" y="170.79"/>
      <point x="312.559" y="182"/>
      <point x="285.402" y="182" type="curve" smooth="yes"/>
      <point x="257.561" y="182"/>
      <point x="239" y="171"/>
      <point x="239" y="148" type="curve" smooth="yes"/>
      <point x="239" y="126"/>
      <point x="255.095" y="114"/>
      <point x="287.285" y="114" type="curve" smooth="yes"/>
      <point x="322.279" y="114"/>
      <point x="338.88" y="128.34"/>
    </contour>
  </outline>
</glyph>
<glyph name="aogonek.ss10" format="2">
  <advance width="568"/>
  <anchor x="284" y="520" name="top"/>
  <anchor x="284" y="-20" name="bottom"/>
  <outline>
    <contour>
      <point x="313" y="73" type="line"/>
      <point x="313" y="202" type="line"/>
      <point x="302" y="181"/>
      <point x="284" y="171"/>
      <point x="263" y="171" type="curve" smooth="yes"/>
      <point x="236" y="171"/>
      <point x="225" y="155"/>
      <point x="225" y="139" type="curve" smooth="yes"/>
      <point x="225" y="122"/>
      <point x="237" y="105"/>
      <point x="263" y="105" type="curve" smooth="yes"/>
      <point x="300" y="105"/>
      <point x="313" y="139"/>
      <point x="313" y="192" type="curve"/>
      <point x="341" y="111" type="line"/>
      <point x="321" y="34"/>
      <point x="290" y="-20"/>
      <point x="202" y="-20" type="curve" smooth="yes"/>
      <point x="106" y="-20"/>
      <point x="35" y="44"/>
      <point x="35" y="137" type="curve" smooth="yes"/>
      <point x="35" y="231"/>
      <point x="109" y="286"/>
      <point x="228" y="286" type="curve" smooth="yes"/>
      <point x="292" y="286"/>
      <point x="313" y="302"/>
      <point x="313" y="338" type="curve" smooth="yes"/>
      <point x="313" y="369"/>
      <point x="295.945" y="390"/>
      <point x="245.918" y="390" type="curve" smooth="yes"/>
      <point x="216.356" y="390"/>
      <point x="147" y="383"/>
      <point x="83" y="280" type="curve"/>
      <point x="40" y="430" type="line"/>
      <point x="74" y="482"/>
      <point x="170.499" y="520"/>
      <point x="278.535" y="520" type="curve" smooth="yes"/>
      <point x="415.941" y="520"/>
      <point x="503" y="458"/>
      <point x="503" y="352" type="curve" smooth="yes"/>
      <point x="503" y="-10" type="line"/>
    </contour>
    <contour>
      <point x="429.637" y="-206" type="line"/>
      <point x="350.25" y="-196"/>
      <point x="299" y="-158"/>
      <point x="299" y="-105" type="curve" smooth="yes"/>
      <point x="299" y="-53"/>
      <point x="359.106" y="-0.627628"/>
      <point x="455.579" y="16.3724" type="curve"/>
      <point x="503" y="0" type="line"/>
      <point x="464.619" y="-24"/>
      <point x="441" y="-67"/>
      <point x="441" y="-104" type="curve" smooth="yes"/>
      <point x="441" y="-138"/>
      <point x="461.672" y="-169"/>
      <point x="504" y="-183" type="curve"/>
    </contour>
  </outline>
</glyph>
<glyph name="b.ss11" format="2">
  <advance width="629"/>
  <anchor x="345" y="-20" name="bottom"/>
  <anchor x="330" y="750" name="top"/>
  <outline>
    <contour>
      <point x="60" y="-10" type="line"/>
      <point x="250" y="73" type="line"/>
      <point x="250" y="700" type="line"/>
      <point x="60" y="700" type="line"/>
    </contour>
    <contour>
      <point x="394.058" y="-20" type="curve" smooth="yes"/>
      <point x="514" y="-20"/>
      <point x="587" y="87"/>
      <point x="587" y="255" type="curve" smooth="yes"/>
      <point x="587" y="420"/>
      <point x="517" y="520"/>
      <point x="395" y="520" type="curve" smooth="yes"/>
      <point x="273" y="520"/>
      <point x="218" y="420"/>
      <point x="218" y="255" type="curve" smooth="yes"/>
      <point x="218" y="77"/>
      <point x="273" y="-20"/>
    </contour>
    <contour>
      <point x="330" y="120" type="curve" smooth="yes"/>
      <point x="283" y="120"/>
      <point x="250" y="175.18"/>
      <point x="250" y="254.676" type="curve" smooth="yes"/>
      <point x="250" y="327.626"/>
      <point x="283" y="380"/>
      <point x="329" y="380" type="curve" smooth="yes"/>
      <point x="371" y="380"/>
      <point x="397" y="333.237"/>
      <point x="397" y="253.741" type="curve" smooth="yes"/>
      <point x="397" y="168.633"/>
      <point x="373" y="120"/>
    </contour>
  </outline>
</glyph>
<glyph name="brevecy" format="2">
  <advance width="336"/>
  <anchor x="168" y="500" name="_top"/>
  <anchor x="168" y="680" name="top"/>
  <outline>
    <contour>
      <point x="22" y="702" type="line"/>
      <point x="31" y="597.147"/>
      <point x="81" y="550"/>
      <point x="165" y="550" type="curve" smooth="yes"/>
      <point x="252" y="550"/>
      <point x="308" y="601.427"/>
      <point x="317" y="702" type="curve"/>
      <point x="216" y="702" type="line"/>
      <point x="211" y="658.019"/>
      <point x="192" y="640"/>
      <point x="168" y="640" type="curve" smooth="yes"/>
      <point x="144" y="640"/>
      <point x="129" y="656.83"/>
      <point x="123" y="702" type="curve"/>
    </contour>
  </outline>
</glyph>
<glyph name="c.ss12" format="2">
  <advance width="570"/>
  <anchor x="310" y="520" name="top"/>
  <anchor x="310" y="-20" name="bottom"/>
  <outline>
    <contour>
      <point x="520" y="196" type="line"/>
      <point x="467" y="137"/>
      <point x="406" y="110"/>
      <point x="346" y="110" type="curve" smooth="yes"/>
      <point x="282" y="110"/>
      <point x="229" y="168"/>
      <point x="229" y="255" type="curve" smooth="yes"/>
      <point x="229" y="342"/>
      <point x="280" y="390"/>
      <point x="345" y="390" type="curve" smooth="yes"/>
      <point x="404" y="390"/>
      <point x="454" y="367"/>
      <point x="520" y="315" type="curve"/>
      <point x="531" y="431" type="line"/>
      <point x="482" y="485"/>
      <point x="406" y="520"/>
      <point x="315" y="520" type="curve" smooth="yes"/>
      <point x="135" y="520"/>
      <point x="39" y="401"/>
      <point x="39" y="255" type="curve" smooth="yes"/>
      <point x="39" y="100"/>
      <point x="135" y="-20"/>
      <point x="314" y="-20" type="curve" smooth="yes"/>
      <point x="411" y="-20"/>
      <point x="482" y="26"/>
      <point x="531" y="80" type="curve"/>
    </contour>
  </outline>
</glyph>
<glyph name="ccedilla.ss12" format="2">
  <advance width="570"/>
  <anchor x="310" y="520" name="top"/>
  <anchor x="290" y="-218" name="bottom"/>
  <outline>
    <contour>
      <point x="520" y="196" type="line"/>
      <point x="467" y="137"/>
      <point x="406" y="110"/>
      <point x="346" y="110" type="curve" smooth="yes"/>
      <point x="282" y="110"/>
      <point x="229" y="168"/>
      <point x="229" y="255" type="curve" smooth="yes"/>
      <point x="229" y="342"/>
      <point x="280" y="390"/>
      <point x="345" y="390" type="curve" smooth="yes"/>
      <point x="404" y="390"/>
      <point x="454" y="367"/>
      <point x="520" y="315" type="curve"/>
      <point x="531" y="431" type="line"/>
      <point x="482" y="485"/>
      <point x="406" y="520"/>
      <point x="315" y="520" type="curve" smooth="yes"/>
      <point x="135" y="520"/>
      <point x="39" y="401"/>
      <point x="39" y="255" type="curve" smooth="yes"/>
      <point x="39" y="100"/>
      <point x="135" y="-20"/>
      <point x="314" y="-20" type="curve" smooth="yes"/>
      <point x="411" y="-20"/>
      <point x="482" y="26"/>
      <point x="531" y="80" type="curve"/>
    </contour>
    <contour>
      <point x="158" y="-205" type="line"/>
      <point x="180" y="-211"/>
      <point x="213" y="-218"/>
      <point x="266" y="-218" type="curve" smooth="yes"/>
      <point x="369" y="-218"/>
      <point x="418" y="-191"/>
      <point x="418" y="-134" type="curve" smooth="yes"/>
      <point x="418" y="-87"/>
      <point x="385" y="-64"/>
      <point x="317" y="-64" type="curve"/>
      <point x="364.423" y="20.4105" type="line"/>
      <point x="262.423" y="20.4105" type="line"/>
      <point x="194" y="-109" type="line"/>
      <point x="210" y="-107"/>
      <point x="235" y="-105"/>
      <point x="252" y="-105" type="curve" smooth="yes"/>
      <point x="282" y="-105"/>
      <point x="298" y="-111"/>
      <point x="298" y="-133" type="curve" smooth="yes"/>
      <point x="298" y="-151"/>
      <point x="287" y="-164"/>
      <point x="250" y="-164" type="curve" smooth="yes"/>
      <point x="229" y="-164"/>
      <point x="200" y="-160"/>
      <point x="184" y="-154" type="curve"/>
    </contour>
  </outline>
</glyph>
<glyph name="decyr.ss08" format="2">
  <advance width="781"/>
  <outline>
    <contour>
      <point x="119" y="86" type="line"/>
      <point x="321" y="86" type="line"/>
      <point x="390" y="322" type="line"/>
      <point x="459" y="86" type="line"/>
      <point x="663" y="86" type="line"/>
      <point x="494" y="500" type="line"/>
      <point x="288" y="500" type="line"/>
    </contour>
    <contour>
      <point x="168" y="-140" type="line"/>
      <point x="169" y="-107"/>
      <point x="155" y="0"/>
      <point x="214" y="0" type="curve" smooth="yes"/>
      <point x="564" y="0" type="line" smooth="yes"/>
      <point x="635" y="0"/>
      <point x="616" y="-102"/>
      <point x="616" y="-140" type="curve"/>
      <point x="752" y="-140" type="line"/>
      <point x="752" y="72"/>
      <point x="731" y="130"/>
      <point x="633" y="130" type="curve" smooth="yes"/>
      <point x="150" y="130" type="line" smooth="yes"/>
      <point x="52" y="130"/>
      <point x="31" y="72"/>
      <point x="31" y="-140" type="curve"/>
    </contour>
  </outline>
</glyph>
<glyph name="e.ss09" format="2">
  <advance width="595"/>
  <anchor x="300" y="520" name="top"/>
  <anchor x="300" y="-20" name="bottom"/>
  <anchor x="423" y="-3" name="ogonek"/>
  <outline>
    <contour>
      <point x="379" y="328" type="line"/>
      <point x="379" y="366"/>
      <point x="348.62" y="390"/>
      <point x="303.051" y="390" type="curve" smooth="yes"/>
      <point x="253.43" y="390"/>
      <point x="219" y="365"/>
      <point x="219" y="328" type="curve"/>
    </contour>
    <contour>
      <point x="219" y="228" type="line"/>
      <point x="219" y="146"/>
      <point x="246.34" y="110"/>
      <point x="310.132" y="110" type="curve" smooth="yes"/>
      <point x="351.648" y="110"/>
      <point x="377.975" y="132"/>
      <point x="380" y="167" type="curve"/>
      <point x="563" y="167" type="line"/>
      <point x="542.925" y="47"/>
      <point x="451.583" y="-20"/>
      <point x="311.058" y="-20" type="curve" smooth="yes"/>
      <point x="141.223" y="-20"/>
      <point x="28" y="90"/>
      <point x="28" y="255" type="curve" smooth="yes"/>
      <point x="28" y="414"/>
      <point x="140.4" y="520"/>
      <point x="309" y="520" type="curve" smooth="yes"/>
      <point x="470.318" y="520"/>
      <point x="582" y="417.79"/>
      <point x="571" y="228" type="curve"/>
    </contour>
  </outline>
</glyph>
<glyph name="ereversedcyr.ss12" format="2">
  <advance width="570"/>
  <anchor x="278" y="520" name="top"/>
  <anchor x="278" y="-20" name="bottom"/>
  <outline>
    <contour>
      <point x="39" y="80" type="line"/>
      <point x="88" y="26"/>
      <point x="159" y="-20"/>
      <point x="256" y="-20" type="curve" smooth="yes"/>
      <point x="435" y="-20"/>
      <point x="531" y="100"/>
      <point x="531" y="255" type="curve" smooth="yes"/>
      <point x="531" y="401"/>
      <point x="435" y="520"/>
      <point x="255" y="520" type="curve" smooth="yes"/>
      <point x="164" y="520"/>
      <point x="88" y="485"/>
      <point x="39" y="431" type="curve"/>
      <point x="50" y="315" type="line"/>
      <point x="116" y="367"/>
      <point x="166" y="390"/>
      <point x="225" y="390" type="curve" smooth="yes"/>
      <point x="290" y="390"/>
      <point x="341" y="342"/>
      <point x="341" y="255" type="curve" smooth="yes"/>
      <point x="341" y="168"/>
      <point x="288" y="110"/>
      <point x="224" y="110" type="curve" smooth="yes"/>
      <point x="164" y="110"/>
      <point x="103" y="137"/>
      <point x="50" y="196" type="curve"/>
    </contour>
    <contour>
      <point x="152" y="198" type="line"/>
      <point x="426" y="198" type="line"/>
      <point x="426" y="304" type="line"/>
      <point x="152" y="304" type="line"/>
    </contour>
  </outline>
</glyph>
<glyph name="five.osf.ss12" format="2">
  <advance width="604"/>
  <outline>
    <contour>
      <point x="36" y="78" type="line"/>
      <point x="105" y="3"/>
      <point x="177" y="-29"/>
      <point x="259" y="-29" type="curve" smooth="yes"/>
      <point x="339" y="-29"/>
      <point x="383" y="9"/>
      <point x="383" y="73" type="curve" smooth="yes"/>
      <point x="383" y="130"/>
      <point x="347" y="167"/>
      <point x="257" y="167" type="curve" smooth="yes"/>
      <point x="200" y="167"/>
      <point x="135" y="152"/>
      <point x="41" y="113" type="curve"/>
      <point x="134" y="550" type="line"/>
      <point x="553" y="550" type="line"/>
      <point x="525" y="410" type="line"/>
      <point x="298" y="410" type="line"/>
      <point x="271" y="283" type="line"/>
      <point x="296" y="291"/>
      <point x="317" y="297"/>
      <point x="354" y="297" type="curve" smooth="yes"/>
      <point x="489" y="297"/>
      <point x="574" y="217"/>
      <point x="574" y="76" type="curve" smooth="yes"/>
      <point x="574" y="-82"/>
      <point x="468" y="-170"/>
      <point x="301" y="-170" type="curve" smooth="yes"/>
      <point x="176" y="-170"/>
      <point x="93" y="-127"/>
      <point x="18" y="-46" type="curve"/>
    </contour>
  </outline>
</glyph>
<glyph name="germandbls.ss10" format="2">
  <advance width="730"/>
  <outline>
    <contour>
      <point x="59" y="0" type="line"/>
      <point x="59" y="535" type="line" smooth="yes"/>
      <point x="59" y="686"/>
      <point x="168" y="751"/>
      <point x="315" y="751" type="curve" smooth="yes"/>
      <point x="456" y="751"/>
      <point x="563" y="692"/>
      <point x="563" y="561" type="curve" smooth="yes"/>
      <point x="563" y="438"/>
      <point x="488" y="430"/>
      <point x="488" y="378" type="curve" smooth="yes"/>
      <point x="488" y="298"/>
      <point x="694" y="288"/>
      <point x="694" y="150" type="curve" smooth="yes"/>
      <point x="694" y="51"/>
      <point x="607" y="-20"/>
      <point x="482" y="-20" type="curve" smooth="yes"/>
      <point x="381" y="-20"/>
      <point x="309" y="26"/>
      <point x="267" y="87" type="curve"/>
      <point x="315" y="235" type="line"/>
      <point x="360" y="149"/>
      <point x="417" y="110"/>
      <point x="461" y="110" type="curve" smooth="yes"/>
      <point x="485" y="110"/>
      <point x="504" y="122"/>
      <point x="504" y="145" type="curve" smooth="yes"/>
      <point x="504" y="226"/>
      <point x="300" y="247"/>
      <point x="300" y="362" type="curve" smooth="yes"/>
      <point x="300" y="456"/>
      <point x="375" y="457"/>
      <point x="375" y="550" type="curve" smooth="yes"/>
      <point x="375" y="595"/>
      <point x="352" y="620"/>
      <point x="316" y="620" type="curve" smooth="yes"/>
      <point x="274" y="620"/>
      <point x="249" y="583"/>
      <point x="249" y="518" type="curve" smooth="yes"/>
      <point x="249" y="0" type="line"/>
    </contour>
  </outline>
</glyph>
<glyph name="k.ss11" format="2">
  <advance width="592"/>
  <anchor x="296" y="-20" name="bottom"/>
  <anchor x="149" y="750" name="top"/>
  <outline>
    <contour>
      <point x="54" y="0" type="line"/>
      <point x="244" y="0" type="line"/>
      <point x="244" y="700" type="line"/>
      <point x="54" y="700" type="line"/>
    </contour>
    <contour>
      <point x="121" y="228" type="line"/>
      <point x="285" y="228" type="line" name="iv01"/>
      <point x="377" y="0" type="line" name="ab02"/>
      <point x="590" y="0" type="line"/>
      <point x="452" y="283" type="line"/>
      <point x="577" y="500" type="line" name="av02"/>
      <point x="386" y="500" type="line"/>
      <point x="304" y="362" type="line" name="iv02"/>
      <point x="120" y="362" type="line"/>
    </contour>
  </outline>
</glyph>
<glyph name="notequal.case" format="2">
  <advance width="523"/>
  <outline>
    <contour>
      <point x="135" y="184" type="line"/>
      <point x="183" y="184" type="line"/>
      <point x="230" y="280" type="line"/>
      <point x="469" y="280" type="line"/>
      <point x="469" y="300" type="line"/>
      <point x="239" y="300" type="line"/>
      <point x="341" y="510" type="line"/>
      <point x="469" y="510" type="line"/>
      <point x="469" y="530" type="line"/>
      <point x="351" y="530" type="line"/>
      <point x="388" y="606" type="line"/>
      <point x="340" y="606" type="line"/>
      <point x="303" y="530" type="line"/>
      <point x="55" y="530" type="line"/>
      <point x="55" y="510" type="line"/>
      <point x="293" y="510" type="line"/>
      <point x="191" y="300" type="line"/>
      <point x="55" y="300" type="line"/>
      <point x="55" y="280" type="line"/>
      <point x="182" y="280" type="line"/>
    </contour>
  </outline>
</glyph>
<glyph name="oe.ss10" format="2">
  <advance width="944"/>
  <outline>
    <contour>
      <point x="300" y="-20" type="curve" smooth="yes"/>
      <point x="474" y="-20"/>
      <point x="569" y="79"/>
      <point x="569" y="255" type="curve" smooth="yes"/>
      <point x="569" y="421"/>
      <point x="473" y="520"/>
      <point x="300" y="520" type="curve" smooth="yes"/>
      <point x="137" y="520"/>
      <point x="31" y="421"/>
      <point x="31" y="255" type="curve" smooth="yes"/>
      <point x="31" y="79"/>
      <point x="138" y="-20"/>
    </contour>
    <contour>
      <point x="300" y="120" type="curve" smooth="yes"/>
      <point x="247" y="120"/>
      <point x="221" y="163.643"/>
      <point x="221" y="250.929" type="curve" smooth="yes"/>
      <point x="221" y="337.286"/>
      <point x="246" y="380"/>
      <point x="300" y="380" type="curve" smooth="yes"/>
      <point x="352" y="380"/>
      <point x="379" y="339.143"/>
      <point x="379" y="251.857" type="curve" smooth="yes"/>
      <point x="379" y="163.643"/>
      <point x="352" y="120"/>
    </contour>
    <contour>
      <point x="571" y="328" type="line"/>
      <point x="571" y="356"/>
      <point x="598.184" y="390"/>
      <point x="645.503" y="390" type="curve" smooth="yes"/>
      <point x="691.816" y="390"/>
      <point x="719" y="358"/>
      <point x="719" y="328" type="curve"/>
    </contour>
    <contour>
      <point x="854" y="220" type="line"/>
      <point x="794.28" y="139"/>
      <point x="745.618" y="110"/>
      <point x="683.045" y="110" type="curve" smooth="yes"/>
      <point x="596.092" y="110"/>
      <point x="570" y="166"/>
      <point x="570" y="224" type="curve"/>
      <point x="912" y="224" type="line"/>
      <point x="922" y="408"/>
      <point x="824" y="520"/>
      <point x="653" y="520" type="curve" smooth="yes"/>
      <point x="483.381" y="520"/>
      <point x="379" y="401"/>
      <point x="379" y="255" type="curve" smooth="yes"/>
      <point x="379" y="99"/>
      <point x="474.184" y="-20"/>
      <point x="663.676" y="-20" type="curve" smooth="yes"/>
      <point x="770.756" y="-20"/>
      <point x="862.934" y="18"/>
      <point x="897" y="70" type="curve"/>
    </contour>
  </outline>
</glyph>
<glyph name="scedilla.ss10" format="2">
  <advance width="522"/>
  <anchor x="255" y="520" name="top"/>
  <anchor x="245" y="-218" name="bottom"/>
  <outline>
    <contour>
      <point x="30" y="70" type="line"/>
      <point x="80" y="1"/>
      <point x="187" y="-20"/>
      <point x="266" y="-20" type="curve" smooth="yes"/>
      <point x="404" y="-20"/>
      <point x="486" y="43"/>
      <point x="486" y="151" type="curve" smooth="yes"/>
      <point x="486" y="258.058"/>
      <point x="385.265" y="290.251"/>
      <point x="309.93" y="314.327" type="curve" smooth="yes"/>
      <point x="264.935" y="328.706"/>
      <point x="229" y="340.19"/>
      <point x="229" y="362.661" type="curve" smooth="yes"/>
      <point x="229" y="379"/>
      <point x="248" y="390"/>
      <point x="281.634" y="390" type="curve" smooth="yes"/>
      <point x="339" y="390"/>
      <point x="382" y="358"/>
      <point x="432" y="280" type="curve"/>
      <point x="475" y="430" type="line"/>
      <point x="450" y="470"/>
      <point x="371" y="520"/>
      <point x="254" y="520" type="curve" smooth="yes"/>
      <point x="110" y="520"/>
      <point x="38" y="444"/>
      <point x="38" y="346" type="curve" smooth="yes"/>
      <point x="38" y="233.88"/>
      <point x="144.71" y="204.387"/>
      <point x="220.608" y="183.409" type="curve" smooth="yes"/>
      <point x="262.497" y="171.832"/>
      <point x="295" y="162.848"/>
      <point x="295" y="144" type="curve" smooth="yes"/>
      <point x="295" y="123"/>
      <point x="275" y="110"/>
      <point x="235" y="110" type="curve" smooth="yes"/>
      <point x="175" y="110"/>
      <point x="126" y="140"/>
      <point x="73" y="220" type="curve"/>
    </contour>
    <contour>
      <point x="113" y="-205" type="line"/>
      <point x="135" y="-211"/>
      <point x="168" y="-218"/>
      <point x="221" y="-218" type="curve" smooth="yes"/>
      <point x="324" y="-218"/>
      <point x="373" y="-191"/>
      <point x="373" y="-134" type="curve" smooth="yes"/>
      <point x="373" y="-87"/>
      <point x="340" y="-64"/>
      <point x="272" y="-64" type="curve"/>
      <point x="319.423" y="20.4105" type="line"/>
      <point x="217.423" y="20.4105" type="line"/>
      <point x="149" y="-109" type="line"/>
      <point x="165" y="-107"/>
      <point x="190" y="-105"/>
      <point x="207" y="-105" type="curve" smooth="yes"/>
      <point x="237" y="-105"/>
      <point x="253" y="-111"/>
      <point x="253" y="-133" type="curve" smooth="yes"/>
      <point x="253" y="-151"/>
      <point x="242" y="-164"/>
      <point x="205" y="-164" type="curve" smooth="yes"/>
      <point x="184" y="-164"/>
      <point x="155" y="-160"/>
      <point x="139" y="-154" type="curve"/>
    </contour>
  </outline>
</glyph>
<glyph name="schwa.ss09" format="2">
  <advance width="604"/>
  <anchor x="302" y="-20" name="bottom"/>
  <anchor x="302" y="520" name="top"/>
  <outline>
    <contour>
      <point x="42" y="296" type="line"/>
      <point x="41" y="281.911"/>
      <point x="39" y="268.828"/>
      <point x="39" y="245.682" type="curve" smooth="yes"/>
      <point x="39" y="82.6497"/>
      <point x="143" y="-20"/>
      <point x="305" y="-20" type="curve" smooth="yes"/>
      <point x="469" y="-20"/>
      <point x="565" y="92"/>
      <point x="565" y="252" type="curve" smooth="yes"/>
      <point x="565" y="398"/>
      <point x="478" y="520"/>
      <point x="300" y="520" type="curve" smooth="yes"/>
      <point x="161" y="520"/>
      <point x="70" y="447"/>
      <point x="44" y="337" type="curve"/>
      <point x="234" y="337" type="line"/>
      <point x="242" y="364"/>
      <point x="266" y="390"/>
      <point x="303" y="390" type="curve" smooth="yes"/>
      <point x="344" y="390"/>
      <point x="372" y="356.708"/>
      <point x="373" y="296" type="curve"/>
    </contour>
    <contour>
      <point x="370" y="176" type="line"/>
      <point x="362" y="138"/>
      <point x="341" y="110"/>
      <point x="297" y="110" type="curve" smooth="yes"/>
      <point x="257" y="110"/>
      <point x="236" y="133"/>
      <point x="228" y="176" type="curve"/>
    </contour>
  </outline>
</glyph>
<glyph name="schwa.ss10" format="2">
  <advance width="600"/>
  <anchor x="300" y="-20" name="bottom"/>
  <anchor x="300" y="520" name="top"/>
  <outline>
    <contour>
      <point x="365" y="179" type="line"/>
      <point x="356" y="136"/>
      <point x="337" y="110"/>
      <point x="303" y="110" type="curve" smooth="yes"/>
      <point x="267" y="110"/>
      <point x="245" y="138"/>
      <point x="239" y="179" type="curve"/>
    </contour>
    <contour>
      <point x="51" y="289" type="line"/>
      <point x="50" y="280"/>
      <point x="49" y="270"/>
      <point x="49" y="254" type="curve" smooth="yes"/>
      <point x="49" y="94"/>
      <point x="148" y="-20"/>
      <point x="302" y="-20" type="curve" smooth="yes"/>
      <point x="457" y="-20"/>
      <point x="561" y="95"/>
      <point x="561" y="250" type="curve" smooth="yes"/>
      <point x="561" y="410"/>
      <point x="448" y="520"/>
      <point x="282" y="520" type="curve" smooth="yes"/>
      <point x="185" y="520"/>
      <point x="93" y="482"/>
      <point x="59" y="430" type="curve"/>
      <point x="100" y="291" type="line"/>
      <point x="151" y="368"/>
      <point x="207" y="390"/>
      <point x="259" y="390" type="curve" smooth="yes"/>
      <point x="326" y="390"/>
      <point x="360" y="355"/>
      <point x="369" y="289" type="curve"/>
    </contour>
  </outline>
</glyph>
<glyph name="schwa.ss12" format="2">
  <advance width="600"/>
  <anchor x="300" y="-20" name="bottom"/>
  <anchor x="300" y="520" name="top"/>
  <outline>
    <contour>
      <point x="368" y="186" type="curve"/>
      <point x="240" y="186" type="line"/>
      <point x="245" y="140"/>
      <point x="262" y="110"/>
      <point x="304" y="110" type="curve" smooth="yes"/>
      <point x="344" y="110"/>
      <point x="362" y="138"/>
    </contour>
    <contour>
      <point x="53" y="296" type="curve"/>
      <point x="368" y="296" type="line"/>
      <point x="361" y="361"/>
      <point x="326" y="390"/>
      <point x="261" y="390" type="curve" smooth="yes"/>
      <point x="204" y="390"/>
      <point x="152" y="367"/>
      <point x="88" y="315" type="curve"/>
      <point x="77" y="431" type="line"/>
      <point x="120" y="483"/>
      <point x="196" y="520"/>
      <point x="295" y="520" type="curve" smooth="yes"/>
      <point x="476" y="520"/>
      <point x="561" y="397"/>
      <point x="561" y="254" type="curve" smooth="yes"/>
      <point x="561" y="111"/>
      <point x="475" y="-20"/>
      <point x="304" y="-20" type="curve" smooth="yes"/>
      <point x="135" y="-20"/>
      <point x="49" y="108"/>
      <point x="49" y="253" type="curve" smooth="yes"/>
      <point x="49" y="267.19"/>
      <point x="50" y="281.81"/>
    </contour>
  </outline>
</glyph>
<glyph name="shchacyr.loclBGR" format="2">
  <advance width="964"/>
  <outline>
    <contour>
      <point x="866" y="500" type="line"/>
      <point x="676" y="500" type="line"/>
      <point x="676" y="0" type="line"/>
      <point x="866" y="0" type="line"/>
    </contour>
    <contour>
      <point x="554" y="500" type="line"/>
      <point x="364" y="500" type="line"/>
      <point x="364" y="186" type="line" smooth="yes"/>
      <point x="364" y="42"/>
      <point x="425" y="-20"/>
      <point x="515" y="-20" type="curve" smooth="yes"/>
      <point x="602" y="-20"/>
      <point x="668" y="39"/>
      <point x="694" y="140" type="curve"/>
      <point x="692" y="218" type="line"/>
      <point x="676" y="283" type="line"/>
      <point x="676" y="186.82"/>
      <point x="658" y="120"/>
      <point x="609" y="120" type="curve" smooth="yes"/>
      <point x="573" y="120"/>
      <point x="554" y="155.185"/>
      <point x="554" y="232.593" type="curve" smooth="yes"/>
    </contour>
    <contour>
      <point x="242" y="500" type="line"/>
      <point x="52" y="500" type="line"/>
      <point x="52" y="186" type="line" smooth="yes"/>
      <point x="52" y="42"/>
      <point x="113" y="-20"/>
      <point x="203" y="-20" type="curve" smooth="yes"/>
      <point x="290" y="-20"/>
      <point x="356" y="39"/>
      <point x="382" y="140" type="curve"/>
      <point x="380" y="218" type="line"/>
      <point x="364" y="283" type="line"/>
      <point x="364" y="186.82"/>
      <point x="346" y="120"/>
      <point x="297" y="120" type="curve" smooth="yes"/>
      <point x="261" y="120"/>
      <point x="242" y="155.185"/>
      <point x="242" y="232.593" type="curve" smooth="yes"/>
    </contour>
    <contour>
      <point x="951" y="-140" type="line"/>
      <point x="951" y="74"/>
      <point x="930" y="131"/>
      <point x="831" y="131" type="curve"/>
      <point x="759" y="0" type="line"/>
      <point x="827" y="0"/>
      <point x="812" y="-72"/>
      <point x="812" y="-140" type="curve"/>
    </contour>
  </outline>
</glyph>
<glyph name="three.osf.ss09" format="2">
  <advance width="550"/>
  <outline>
    <contour>
      <point x="7" y="352" type="line"/>
      <point x="29" y="477"/>
      <point x="109" y="570"/>
      <point x="267" y="570" type="curve" smooth="yes"/>
      <point x="425" y="570"/>
      <point x="500" y="471.575"/>
      <point x="500" y="362.453" type="curve" smooth="yes"/>
      <point x="500" y="240.492"/>
      <point x="406" y="187"/>
      <point x="192" y="187" type="curve"/>
      <point x="192" y="277" type="line"/>
      <point x="276" y="277"/>
      <point x="309" y="298.543"/>
      <point x="309" y="357.189" type="curve" smooth="yes"/>
      <point x="309" y="399.079"/>
      <point x="292" y="429"/>
      <point x="261" y="429" type="curve" smooth="yes"/>
      <point x="226" y="429"/>
      <point x="207" y="397"/>
      <point x="197" y="352" type="curve"/>
    </contour>
    <contour>
      <point x="200" y="48" type="line"/>
      <point x="211" y="0"/>
      <point x="232" y="-29"/>
      <point x="271" y="-29" type="curve" smooth="yes"/>
      <point x="307" y="-29"/>
      <point x="329" y="0.310345"/>
      <point x="329" y="50.7241" type="curve" smooth="yes"/>
      <point x="329" y="117.552"/>
      <point x="290" y="141"/>
      <point x="192" y="141" type="curve"/>
      <point x="192" y="231" type="line"/>
      <point x="420" y="231"/>
      <point x="520" y="175.543"/>
      <point x="520" y="49.6968" type="curve" smooth="yes"/>
      <point x="520" y="-66.5505"/>
      <point x="434" y="-170"/>
      <point x="271" y="-170" type="curve" smooth="yes"/>
      <point x="112" y="-170"/>
      <point x="32" y="-77"/>
      <point x="10" y="48" type="curve"/>
    </contour>
  </outline>
</glyph>
<glyph name="three.ss12" format="2">
  <advance width="550"/>
  <outline>
    <contour>
      <point x="44" y="472" type="line"/>
      <point x="107" y="547"/>
      <point x="175" y="580"/>
      <point x="237" y="580" type="curve" smooth="yes"/>
      <point x="287" y="580"/>
      <point x="309" y="554.898"/>
      <point x="309" y="507.086" type="curve" smooth="yes"/>
      <point x="309" y="448.516"/>
      <point x="276" y="427"/>
      <point x="192" y="427" type="curve"/>
      <point x="192" y="337" type="line"/>
      <point x="406" y="337"/>
      <point x="500" y="400.492"/>
      <point x="500" y="522.453" type="curve" smooth="yes"/>
      <point x="500" y="631.575"/>
      <point x="426" y="720"/>
      <point x="279" y="720" type="curve" smooth="yes"/>
      <point x="176" y="720"/>
      <point x="101" y="675"/>
      <point x="31" y="596" type="curve"/>
    </contour>
    <contour>
      <point x="31" y="105" type="line"/>
      <point x="103" y="26"/>
      <point x="182" y="-19"/>
      <point x="287" y="-19" type="curve" smooth="yes"/>
      <point x="442" y="-19"/>
      <point x="520" y="74.4667"/>
      <point x="520" y="187.533" type="curve" smooth="yes"/>
      <point x="520" y="315.533"/>
      <point x="420" y="381"/>
      <point x="192" y="381" type="curve"/>
      <point x="192" y="291" type="line"/>
      <point x="290" y="291"/>
      <point x="329" y="267.552"/>
      <point x="329" y="200.724" type="curve" smooth="yes"/>
      <point x="329" y="147.966"/>
      <point x="305" y="121"/>
      <point x="250" y="121" type="curve" smooth="yes"/>
      <point x="185" y="121"/>
      <point x="111" y="154"/>
      <point x="44" y="229" type="curve"/>
    </contour>
  </outline>
</glyph>
<glyph name="tsecyr.loclBGR" format="2">
  <advance width="680"/>
  <outline>
    <contour>
      <point x="385" y="213" type="line"/>
      <point x="369" y="283" type="line"/>
      <point x="369" y="173.366"/>
      <point x="345" y="110"/>
      <point x="301" y="110" type="curve" smooth="yes"/>
      <point x="268" y="110"/>
      <point x="255" y="147.095"/>
      <point x="255" y="248.355" type="curve" smooth="yes"/>
      <point x="255" y="500" type="line"/>
      <point x="65" y="500" type="line"/>
      <point x="65" y="196" type="line" smooth="yes"/>
      <point x="65" y="58"/>
      <point x="127" y="-20"/>
      <point x="229" y="-20" type="curve" smooth="yes"/>
      <point x="309" y="-20"/>
      <point x="362" y="29"/>
      <point x="387" y="121" type="curve"/>
    </contour>
    <contour>
      <point x="369" y="0" type="line"/>
      <point x="559" y="0" type="line"/>
      <point x="559" y="500" type="line"/>
      <point x="369" y="500" type="line"/>
    </contour>
    <contour>
      <point x="475" y="0" type="line"/>
      <point x="542" y="0"/>
      <point x="528" y="-102"/>
      <point x="528" y="-140" type="curve"/>
      <point x="666" y="-140" type="line"/>
      <point x="666" y="74"/>
      <point x="645" y="130"/>
      <point x="545" y="130" type="curve"/>
    </contour>
  </outline>
</glyph>
<glyph name="two.ss10" format="2">
  <advance width="612"/>
  <outline>
    <contour>
      <point x="45" y="0" type="line"/>
      <point x="566" y="0" type="line"/>
      <point x="566" y="140" type="line"/>
      <point x="45" y="140" type="line"/>
    </contour>
    <contour>
      <point x="45" y="104" type="line"/>
      <point x="443.383" y="181"/>
      <point x="565.5" y="281.455"/>
      <point x="565.5" y="466.162" type="curve" smooth="yes"/>
      <point x="565.5" y="635.747"/>
      <point x="461.399" y="720"/>
      <point x="320.263" y="720" type="curve" smooth="yes"/>
      <point x="200.147" y="720"/>
      <point x="106.056" y="664"/>
      <point x="48" y="578" type="curve"/>
      <point x="93" y="414" type="line"/>
      <point x="164.873" y="534.727"/>
      <point x="229.758" y="580"/>
      <point x="296.64" y="580" type="curve" smooth="yes"/>
      <point x="356.534" y="580"/>
      <point x="375.5" y="538.212"/>
      <point x="375.5" y="483.655" type="curve" smooth="yes"/>
      <point x="375.5" y="367.576"/>
      <point x="289.63" y="284"/>
      <point x="45" y="249" type="curve"/>
    </contour>
  </outline>
</glyph>
<glyph name="vecyr.loclBGR" format="2">
  <advance width="556"/>
  <anchor x="272" y="728" name="top"/>
  <anchor x="273" y="-20" name="bottom"/>
  <outline>
    <contour>
      <point x="447.01" y="398.63" type="curve"/>
      <point x="489.77" y="358.79"/>
      <point x="514" y="297.62"/>
      <point x="514" y="221.67" type="curve" smooth="yes"/>
      <point x="514" y="65.93"/>
      <point x="442.08" y="-20"/>
      <point x="281.95" y="-20" type="curve" smooth="yes"/>
      <point x="121.55" y="-20"/>
      <point x="52.61" y="46.5599"/>
      <point x="52.61" y="167.17" type="curve" smooth="yes"/>
      <point x="52.61" y="562.82" type="line" smooth="yes"/>
      <point x="52.61" y="683.11"/>
      <point x="118.88" y="750"/>
      <point x="272.02" y="750" type="curve" smooth="yes"/>
      <point x="424.86" y="750"/>
      <point x="494" y="670.98"/>
      <point x="494" y="528.89" type="curve" smooth="yes"/>
      <point x="494" y="477.14"/>
      <point x="476.23" y="432.9"/>
    </contour>
    <contour>
      <point x="242.9" y="320" type="line"/>
      <point x="242.61" y="158.51" type="line" smooth="yes"/>
      <point x="242.57" y="122.97"/>
      <point x="253.85" y="110"/>
      <point x="276.58" y="110" type="curve" smooth="yes"/>
      <point x="312.3" y="110"/>
      <point x="324" y="142.06"/>
      <point x="324" y="204.53" type="curve" smooth="yes"/>
      <point x="324" y="285.898"/>
      <point x="304.602" y="320"/>
      <point x="258.32" y="320" type="curve" smooth="yes"/>
    </contour>
    <contour>
      <point x="242.94" y="450" type="line"/>
      <point x="251.961" y="450" type="line" smooth="yes"/>
      <point x="288.064" y="450"/>
      <point x="304" y="479.145"/>
      <point x="304" y="545.17" type="curve" smooth="yes"/>
      <point x="304" y="594.47"/>
      <point x="295.02" y="620"/>
      <point x="273.45" y="620" type="curve" smooth="yes"/>
      <point x="251.09" y="620"/>
      <point x="242.57" y="607.02"/>
      <point x="242.61" y="571.48" type="curve" smooth="yes"/>
    </contour>
  </outline>
</glyph>
<glyph name="yacyr.ss08" format="2">
  <advance width="570"/>
  <anchor x="285" y="-20" name="bottom"/>
  <anchor x="285" y="520" name="top"/>
  <outline>
    <contour>
      <point x="327" y="0" type="line"/>
      <point x="517" y="0" type="line"/>
      <point x="517" y="500" type="line"/>
      <point x="279" y="500" type="line" smooth="yes"/>
      <point x="141" y="500"/>
      <point x="53" y="442"/>
      <point x="53" y="336" type="curve" smooth="yes"/>
      <point x="53" y="214"/>
      <point x="163" y="173"/>
      <point x="295" y="173" type="curve" smooth="yes"/>
      <point x="327" y="173" type="line"/>
    </contour>
    <contour>
      <point x="327" y="303" type="line"/>
      <point x="313" y="303" type="line" smooth="yes"/>
      <point x="262" y="303"/>
      <point x="243" y="312"/>
      <point x="243" y="337" type="curve" smooth="yes"/>
      <point x="243" y="362"/>
      <point x="262" y="370"/>
      <point x="313" y="370" type="curve" smooth="yes"/>
      <point x="327" y="370" type="line"/>
    </contour>
    <contour>
      <point x="240" y="0" type="line"/>
      <point x="267" y="36"/>
      <point x="237" y="111"/>
      <point x="263" y="162" type="curve" smooth="yes"/>
      <point x="270" y="175"/>
      <point x="278" y="173"/>
      <point x="317" y="173" type="curve"/>
      <point x="199" y="215" type="line"/>
      <point x="149" y="204"/>
      <point x="98" y="213"/>
      <point x="72" y="162" type="curve" smooth="yes"/>
      <point x="46" y="111"/>
      <point x="76" y="36"/>
      <point x="49" y="0" type="curve"/>
    </contour>
  </outline>
</glyph>
<glyph name="zecyr.loclBGR.ss12" format="2">
  <advance width="487"/>
  <outline>
    <contour>
      <point x="37" y="-16.4868" type="line"/>
      <point x="101" y="-61.5535"/>
      <point x="136" y="-81.4868"/>
      <point x="190" y="-81.4868" type="curve" smooth="yes"/>
      <point x="245.287" y="-81.4868"/>
      <point x="273" y="-58.0985"/>
      <point x="273" y="-8.58745" type="curve" smooth="yes"/>
      <point x="273" y="65.0172"/>
      <point x="233.531" y="109.387"/>
      <point x="136" y="96" type="curve"/>
      <point x="136" y="232" type="line"/>
      <point x="202.696" y="232"/>
      <point x="259" y="262.418"/>
      <point x="259" y="328.698" type="curve" smooth="yes"/>
      <point x="259" y="362.143"/>
      <point x="244.663" y="380"/>
      <point x="204.441" y="380" type="curve" smooth="yes"/>
      <point x="161.946" y="380"/>
      <point x="117.901" y="360.067"/>
      <point x="47" y="315" type="curve"/>
      <point x="36" y="431" type="line"/>
      <point x="85.7866" y="484"/>
      <point x="156.318" y="520"/>
      <point x="240.333" y="520" type="curve" smooth="yes"/>
      <point x="371.875" y="520"/>
      <point x="444" y="461.066"/>
      <point x="444" y="353.581" type="curve" smooth="yes"/>
      <point x="444" y="270.371"/>
      <point x="401.593" y="197"/>
      <point x="253" y="185" type="curve"/>
      <point x="380.8" y="185"/>
      <point x="466" y="108.152"/>
      <point x="466" y="-7.11977" type="curve" smooth="yes"/>
      <point x="466" y="-137.183"/>
      <point x="379.238" y="-221.487"/>
      <point x="229.921" y="-221.487" type="curve" smooth="yes"/>
      <point x="131" y="-221.487"/>
      <point x="69" y="-184.487"/>
      <point x="26" y="-132.487" type="curve"/>
    </contour>
  </outline>
</glyph>
